{
    "patcher": {
        "fileversion": 1,
        "appversion": {
            "major": 9,
            "minor": 1,
            "revision": 2,
            "architecture": "x64",
            "modernui": 1
        },
        "classnamespace": "box",
        "rect": [ 34.0, 77.0, 1133.0, 908.0 ],
        "boxes": [
            {
                "box": {
                    "id": "obj-64",
                    "linecount": 2,
                    "maxclass": "comment",
                    "numinlets": 1,
                    "numoutlets": 0,
                    "patching_rect": [ 178.0, 372.0, 150.0, 34.0 ],
                    "presentation_linecount": 2,
                    "text": "add the starting position of the sample"
                }
            },
            {
                "box": {
                    "id": "obj-63",
                    "linecount": 2,
                    "maxclass": "comment",
                    "numinlets": 1,
                    "numoutlets": 0,
                    "patching_rect": [ 184.0, 436.0, 150.0, 34.0 ],
                    "presentation_linecount": 2,
                    "text": "passes the buffer a position of the audio"
                }
            },
            {
                "box": {
                    "id": "obj-62",
                    "maxclass": "comment",
                    "numinlets": 1,
                    "numoutlets": 0,
                    "patching_rect": [ 449.0, 529.0, 150.0, 20.0 ],
                    "text": "reads the buffer"
                }
            },
            {
                "box": {
                    "id": "obj-60",
                    "linecount": 2,
                    "maxclass": "comment",
                    "numinlets": 1,
                    "numoutlets": 0,
                    "patching_rect": [ 396.0, 619.0, 150.0, 34.0 ],
                    "text": "I think this is basically amplifying the audio"
                }
            },
            {
                "box": {
                    "id": "obj-46",
                    "maxclass": "newobj",
                    "numinlets": 2,
                    "numoutlets": 1,
                    "outlettype": [ "float" ],
                    "patching_rect": [ 580.0, 378.0, 32.0, 22.0 ],
                    "text": "/ 1."
                }
            },
            {
                "box": {
                    "id": "obj-44",
                    "maxclass": "newobj",
                    "numinlets": 2,
                    "numoutlets": 1,
                    "outlettype": [ "float" ],
                    "patching_rect": [ 710.0, 316.0, 29.5, 22.0 ],
                    "text": "/ 1."
                }
            },
            {
                "box": {
                    "id": "obj-43",
                    "maxclass": "newobj",
                    "numinlets": 2,
                    "numoutlets": 1,
                    "outlettype": [ "float" ],
                    "patching_rect": [ 710.0, 273.0, 72.0, 22.0 ],
                    "text": "!- 1."
                }
            },
            {
                "box": {
                    "id": "obj-41",
                    "maxclass": "number",
                    "numinlets": 1,
                    "numoutlets": 2,
                    "outlettype": [ "", "bang" ],
                    "parameter_enable": 0,
                    "patching_rect": [ 790.0, 226.0, 50.0, 22.0 ]
                }
            },
            {
                "box": {
                    "id": "obj-40",
                    "maxclass": "number",
                    "numinlets": 1,
                    "numoutlets": 2,
                    "outlettype": [ "", "bang" ],
                    "parameter_enable": 0,
                    "patching_rect": [ 575.0, 231.0, 50.0, 22.0 ]
                }
            },
            {
                "box": {
                    "id": "obj-35",
                    "maxclass": "newobj",
                    "numinlets": 2,
                    "numoutlets": 1,
                    "outlettype": [ "signal" ],
                    "patching_rect": [ 341.0, 371.0, 29.5, 22.0 ],
                    "text": "+~"
                }
            },
            {
                "box": {
                    "id": "obj-34",
                    "maxclass": "newobj",
                    "numinlets": 2,
                    "numoutlets": 1,
                    "outlettype": [ "signal" ],
                    "patching_rect": [ 341.0, 338.0, 29.5, 22.0 ],
                    "text": "*~"
                }
            },
            {
                "box": {
                    "bgmode": 0,
                    "border": 0,
                    "clickthrough": 0,
                    "embed": 1,
                    "enablehscroll": 0,
                    "enablevscroll": 0,
                    "id": "obj-26",
                    "lockeddragscroll": 0,
                    "lockedsize": 0,
                    "maxclass": "bpatcher",
                    "numinlets": 0,
                    "numoutlets": 1,
                    "offset": [ 0.0, 0.0 ],
                    "outlettype": [ "" ],
                    "patcher": {
                        "fileversion": 1,
                        "appversion": {
                            "major": 9,
                            "minor": 1,
                            "revision": 2,
                            "architecture": "x64",
                            "modernui": 1
                        },
                        "classnamespace": "box",
                        "openrect": [ 177.0, 222.0, 188.0, 237.0 ],
                        "openrectmode": 0,
                        "openinpresentation": 1,
                        "devicewidth": 188.0,
                        "boxes": [
                            {
                                "box": {
                                    "bkgndpict": "wfmodes.png",
                                    "bottomvalue": 3,
                                    "id": "obj-11",
                                    "imagemask": 1,
                                    "inactiveimage": 0,
                                    "knobpict": "wfknob.png",
                                    "maxclass": "pictslider",
                                    "movehorizontal": 0,
                                    "numinlets": 2,
                                    "numoutlets": 2,
                                    "outlettype": [ "int", "int" ],
                                    "parameter_enable": 0,
                                    "patching_rect": [ 13.0, 32.5, 19.0, 76.0 ],
                                    "presentation": 1,
                                    "presentation_rect": [ 1.0, 0.5, 19.0, 76.0 ],
                                    "rightvalue": 0,
                                    "topvalue": 0
                                }
                            },
                            {
                                "box": {
                                    "fontname": "Arial",
                                    "fontsize": 11.595187,
                                    "id": "obj-15",
                                    "maxclass": "newobj",
                                    "numinlets": 1,
                                    "numoutlets": 2,
                                    "outlettype": [ "", "" ],
                                    "patcher": {
                                        "fileversion": 1,
                                        "appversion": {
                                            "major": 9,
                                            "minor": 1,
                                            "revision": 2,
                                            "architecture": "x64",
                                            "modernui": 1
                                        },
                                        "classnamespace": "box",
                                        "rect": [ 175.0, 158.0, 298.0, 526.0 ],
                                        "default_fontsize": 10.0,
                                        "boxes": [
                                            {
                                                "box": {
                                                    "id": "obj-24",
                                                    "maxclass": "comment",
                                                    "numinlets": 1,
                                                    "numoutlets": 0,
                                                    "patching_rect": [ 17.0, 9.0, 137.0, 18.0 ],
                                                    "style": "helpfile_label",
                                                    "text": "(special thanks to Pure)"
                                                }
                                            },
                                            {
                                                "box": {
                                                    "comment": "",
                                                    "id": "obj-14",
                                                    "index": 2,
                                                    "maxclass": "outlet",
                                                    "numinlets": 1,
                                                    "numoutlets": 0,
                                                    "patching_rect": [ 225.0, 476.0, 25.0, 25.0 ]
                                                }
                                            },
                                            {
                                                "box": {
                                                    "fontsize": 12.0,
                                                    "id": "obj-13",
                                                    "maxclass": "message",
                                                    "numinlets": 2,
                                                    "numoutlets": 1,
                                                    "outlettype": [ "" ],
                                                    "patching_rect": [ 225.0, 443.571411, 44.0, 22.0 ],
                                                    "text": "set $1"
                                                }
                                            },
                                            {
                                                "box": {
                                                    "fontname": "Arial",
                                                    "fontsize": 12.0,
                                                    "id": "obj-31",
                                                    "maxclass": "newobj",
                                                    "numinlets": 2,
                                                    "numoutlets": 1,
                                                    "outlettype": [ "int" ],
                                                    "patching_rect": [ 77.5, 154.0, 35.0, 22.0 ],
                                                    "text": "1"
                                                }
                                            },
                                            {
                                                "box": {
                                                    "fontname": "Arial",
                                                    "fontsize": 12.0,
                                                    "id": "obj-30",
                                                    "maxclass": "newobj",
                                                    "numinlets": 2,
                                                    "numoutlets": 1,
                                                    "outlettype": [ "int" ],
                                                    "patching_rect": [ 20.0, 154.0, 35.0, 22.0 ],
                                                    "text": "2"
                                                }
                                            },
                                            {
                                                "box": {
                                                    "fontname": "Arial",
                                                    "fontsize": 12.0,
                                                    "id": "obj-29",
                                                    "maxclass": "newobj",
                                                    "numinlets": 1,
                                                    "numoutlets": 1,
                                                    "outlettype": [ "bang" ],
                                                    "patching_rect": [ 19.0, 38.0, 61.0, 22.0 ],
                                                    "text": "loadbang"
                                                }
                                            },
                                            {
                                                "box": {
                                                    "fontname": "Arial",
                                                    "fontsize": 12.0,
                                                    "id": "obj-28",
                                                    "maxclass": "newobj",
                                                    "numinlets": 3,
                                                    "numoutlets": 1,
                                                    "outlettype": [ "" ],
                                                    "patching_rect": [ 144.21875, 213.0, 60.929688, 22.0 ],
                                                    "text": "switch"
                                                }
                                            },
                                            {
                                                "box": {
                                                    "fontname": "Arial",
                                                    "fontsize": 12.0,
                                                    "id": "obj-25",
                                                    "maxclass": "newobj",
                                                    "numinlets": 3,
                                                    "numoutlets": 3,
                                                    "outlettype": [ "bang", "bang", "" ],
                                                    "patching_rect": [ 20.0, 126.0, 134.0, 22.0 ],
                                                    "text": "sel macintosh windows"
                                                }
                                            },
                                            {
                                                "box": {
                                                    "fontname": "Arial",
                                                    "fontsize": 12.0,
                                                    "id": "obj-22",
                                                    "maxclass": "newobj",
                                                    "numinlets": 0,
                                                    "numoutlets": 1,
                                                    "outlettype": [ "" ],
                                                    "patching_rect": [ 20.0, 101.0, 106.0, 22.0 ],
                                                    "text": "r #0_getsystem"
                                                }
                                            },
                                            {
                                                "box": {
                                                    "fontname": "Arial",
                                                    "fontsize": 12.0,
                                                    "id": "obj-21",
                                                    "linecount": 2,
                                                    "maxclass": "message",
                                                    "numinlets": 2,
                                                    "numoutlets": 1,
                                                    "outlettype": [ "" ],
                                                    "patching_rect": [ 19.0, 64.0, 183.0, 35.0 ],
                                                    "text": ";\r\nmax getsystem #0_getsystem"
                                                }
                                            },
                                            {
                                                "box": {
                                                    "fontname": "Arial",
                                                    "fontsize": 12.0,
                                                    "id": "obj-1",
                                                    "maxclass": "newobj",
                                                    "numinlets": 2,
                                                    "numoutlets": 1,
                                                    "outlettype": [ "int" ],
                                                    "patching_rect": [ 144.21875, 408.571411, 32.0, 22.0 ],
                                                    "text": "int"
                                                }
                                            },
                                            {
                                                "box": {
                                                    "fontname": "Arial",
                                                    "fontsize": 12.0,
                                                    "id": "obj-10",
                                                    "maxclass": "newobj",
                                                    "numinlets": 1,
                                                    "numoutlets": 5,
                                                    "outlettype": [ "int", "int", "int", "int", "int" ],
                                                    "patching_rect": [ 121.25, 154.0, 105.53125, 22.0 ],
                                                    "text": "modifiers 100"
                                                }
                                            },
                                            {
                                                "box": {
                                                    "coll_data": {
                                                        "count": 4,
                                                        "data": [
                                                            {
                                                                "key": 0,
                                                                "value": [ "mode", "select" ]
                                                            },
                                                            {
                                                                "key": 1,
                                                                "value": [ "mode", "loop" ]
                                                            },
                                                            {
                                                                "key": 2,
                                                                "value": [ "mode", "move" ]
                                                            },
                                                            {
                                                                "key": 3,
                                                                "value": [ "mode", "draw" ]
                                                            }
                                                        ]
                                                    },
                                                    "fontname": "Arial",
                                                    "fontsize": 12.0,
                                                    "id": "obj-2",
                                                    "maxclass": "newobj",
                                                    "numinlets": 1,
                                                    "numoutlets": 4,
                                                    "outlettype": [ "", "", "", "" ],
                                                    "patching_rect": [ 144.21875, 443.571411, 62.0, 22.0 ],
                                                    "saved_object_attributes": {
                                                        "embed": 1,
                                                        "precision": 6
                                                    },
                                                    "text": "coll"
                                                }
                                            },
                                            {
                                                "box": {
                                                    "fontname": "Arial",
                                                    "fontsize": 12.0,
                                                    "id": "obj-3",
                                                    "maxclass": "newobj",
                                                    "numinlets": 2,
                                                    "numoutlets": 1,
                                                    "outlettype": [ "int" ],
                                                    "patching_rect": [ 144.21875, 287.571411, 32.0, 22.0 ],
                                                    "text": "|"
                                                }
                                            },
                                            {
                                                "box": {
                                                    "comment": "waveform~ mode messages",
                                                    "id": "obj-4",
                                                    "index": 1,
                                                    "maxclass": "inlet",
                                                    "numinlets": 0,
                                                    "numoutlets": 1,
                                                    "outlettype": [ "int" ],
                                                    "patching_rect": [ 32.5, 298.571411, 25.0, 25.0 ]
                                                }
                                            },
                                            {
                                                "box": {
                                                    "fontname": "Arial",
                                                    "fontsize": 12.0,
                                                    "id": "obj-5",
                                                    "maxclass": "newobj",
                                                    "numinlets": 2,
                                                    "numoutlets": 1,
                                                    "outlettype": [ "int" ],
                                                    "patching_rect": [ 207.78125, 213.0, 36.0, 22.0 ],
                                                    "text": "<< 1"
                                                }
                                            },
                                            {
                                                "box": {
                                                    "fontname": "Arial",
                                                    "fontsize": 12.0,
                                                    "id": "obj-6",
                                                    "maxclass": "newobj",
                                                    "numinlets": 1,
                                                    "numoutlets": 3,
                                                    "outlettype": [ "", "int", "int" ],
                                                    "patching_rect": [ 144.21875, 319.571411, 51.0, 22.0 ],
                                                    "text": "change"
                                                }
                                            },
                                            {
                                                "box": {
                                                    "fontname": "Arial",
                                                    "fontsize": 12.0,
                                                    "id": "obj-7",
                                                    "maxclass": "newobj",
                                                    "numinlets": 2,
                                                    "numoutlets": 2,
                                                    "outlettype": [ "bang", "" ],
                                                    "patching_rect": [ 144.21875, 352.571411, 99.78125, 22.0 ],
                                                    "text": "select 0"
                                                }
                                            },
                                            {
                                                "box": {
                                                    "fontname": "Arial",
                                                    "fontsize": 12.0,
                                                    "id": "obj-8",
                                                    "maxclass": "newobj",
                                                    "numinlets": 2,
                                                    "numoutlets": 1,
                                                    "outlettype": [ "" ],
                                                    "patching_rect": [ 144.21875, 253.571411, 36.0, 22.0 ],
                                                    "text": "pak"
                                                }
                                            },
                                            {
                                                "box": {
                                                    "comment": "",
                                                    "id": "obj-9",
                                                    "index": 1,
                                                    "maxclass": "outlet",
                                                    "numinlets": 1,
                                                    "numoutlets": 0,
                                                    "patching_rect": [ 144.21875, 476.0, 25.0, 25.0 ]
                                                }
                                            }
                                        ],
                                        "lines": [
                                            {
                                                "patchline": {
                                                    "destination": [ "obj-13", 0 ],
                                                    "order": 0,
                                                    "source": [ "obj-1", 0 ]
                                                }
                                            },
                                            {
                                                "patchline": {
                                                    "destination": [ "obj-2", 0 ],
                                                    "order": 1,
                                                    "source": [ "obj-1", 0 ]
                                                }
                                            },
                                            {
                                                "patchline": {
                                                    "destination": [ "obj-28", 2 ],
                                                    "source": [ "obj-10", 3 ]
                                                }
                                            },
                                            {
                                                "patchline": {
                                                    "destination": [ "obj-28", 1 ],
                                                    "source": [ "obj-10", 2 ]
                                                }
                                            },
                                            {
                                                "patchline": {
                                                    "destination": [ "obj-5", 0 ],
                                                    "source": [ "obj-10", 4 ]
                                                }
                                            },
                                            {
                                                "patchline": {
                                                    "destination": [ "obj-14", 0 ],
                                                    "source": [ "obj-13", 0 ]
                                                }
                                            },
                                            {
                                                "patchline": {
                                                    "destination": [ "obj-9", 0 ],
                                                    "source": [ "obj-2", 0 ]
                                                }
                                            },
                                            {
                                                "patchline": {
                                                    "destination": [ "obj-25", 0 ],
                                                    "source": [ "obj-22", 0 ]
                                                }
                                            },
                                            {
                                                "patchline": {
                                                    "destination": [ "obj-30", 0 ],
                                                    "source": [ "obj-25", 0 ]
                                                }
                                            },
                                            {
                                                "patchline": {
                                                    "destination": [ "obj-31", 0 ],
                                                    "source": [ "obj-25", 1 ]
                                                }
                                            },
                                            {
                                                "patchline": {
                                                    "destination": [ "obj-8", 0 ],
                                                    "source": [ "obj-28", 0 ]
                                                }
                                            },
                                            {
                                                "patchline": {
                                                    "destination": [ "obj-21", 0 ],
                                                    "source": [ "obj-29", 0 ]
                                                }
                                            },
                                            {
                                                "patchline": {
                                                    "destination": [ "obj-6", 0 ],
                                                    "source": [ "obj-3", 0 ]
                                                }
                                            },
                                            {
                                                "patchline": {
                                                    "destination": [ "obj-28", 0 ],
                                                    "source": [ "obj-30", 0 ]
                                                }
                                            },
                                            {
                                                "patchline": {
                                                    "destination": [ "obj-28", 0 ],
                                                    "source": [ "obj-31", 0 ]
                                                }
                                            },
                                            {
                                                "patchline": {
                                                    "destination": [ "obj-1", 0 ],
                                                    "source": [ "obj-4", 0 ]
                                                }
                                            },
                                            {
                                                "patchline": {
                                                    "destination": [ "obj-8", 1 ],
                                                    "source": [ "obj-5", 0 ]
                                                }
                                            },
                                            {
                                                "patchline": {
                                                    "destination": [ "obj-7", 0 ],
                                                    "source": [ "obj-6", 0 ]
                                                }
                                            },
                                            {
                                                "patchline": {
                                                    "destination": [ "obj-1", 0 ],
                                                    "source": [ "obj-7", 0 ]
                                                }
                                            },
                                            {
                                                "patchline": {
                                                    "destination": [ "obj-13", 0 ],
                                                    "order": 0,
                                                    "source": [ "obj-7", 1 ]
                                                }
                                            },
                                            {
                                                "patchline": {
                                                    "destination": [ "obj-2", 0 ],
                                                    "order": 1,
                                                    "source": [ "obj-7", 1 ]
                                                }
                                            },
                                            {
                                                "patchline": {
                                                    "destination": [ "obj-3", 0 ],
                                                    "source": [ "obj-8", 0 ]
                                                }
                                            }
                                        ]
                                    },
                                    "patching_rect": [ 15.0, 127.5, 54.0, 22.0 ],
                                    "saved_object_attributes": {
                                        "fontsize": 10.0
                                    },
                                    "text": "p wfkeys"
                                }
                            },
                            {
                                "box": {
                                    "comment": "",
                                    "id": "obj-22",
                                    "index": 1,
                                    "maxclass": "outlet",
                                    "numinlets": 1,
                                    "numoutlets": 0,
                                    "patching_rect": [ 15.0, 164.0, 30.0, 30.0 ]
                                }
                            }
                        ],
                        "lines": [
                            {
                                "patchline": {
                                    "destination": [ "obj-15", 0 ],
                                    "source": [ "obj-11", 1 ]
                                }
                            },
                            {
                                "patchline": {
                                    "destination": [ "obj-11", 1 ],
                                    "midpoints": [ 59.5, 164.5, 110.0, 164.5, 110.0, 22.5, 24.5, 22.5 ],
                                    "source": [ "obj-15", 1 ]
                                }
                            },
                            {
                                "patchline": {
                                    "destination": [ "obj-22", 0 ],
                                    "source": [ "obj-15", 0 ]
                                }
                            }
                        ]
                    },
                    "patching_rect": [ 510.0, 127.5, 21.0, 79.0 ],
                    "viewvisibility": 1
                }
            },
            {
                "box": {
                    "id": "obj-25",
                    "maxclass": "newobj",
                    "numinlets": 2,
                    "numoutlets": 1,
                    "outlettype": [ "float" ],
                    "patching_rect": [ 571.0, 98.0, 81.0, 22.0 ],
                    "text": "snapshot~ 33"
                }
            },
            {
                "box": {
                    "bgcolor": [ 0.125, 0.125, 0.125, 0.0 ],
                    "floatoutput": 1,
                    "id": "obj-24",
                    "ignoreclick": 1,
                    "knobcolor": [ 1.0, 0.0, 0.0, 1.0 ],
                    "knobshape": 5,
                    "maxclass": "slider",
                    "numinlets": 1,
                    "numoutlets": 1,
                    "orientation": 1,
                    "outlettype": [ "" ],
                    "parameter_enable": 0,
                    "patching_rect": [ 575.0, 135.0, 256.0, 64.0 ],
                    "size": 1.0,
                    "thickness": 25.0
                }
            },
            {
                "box": {
                    "id": "obj-23",
                    "maxclass": "button",
                    "numinlets": 1,
                    "numoutlets": 1,
                    "outlettype": [ "bang" ],
                    "parameter_enable": 0,
                    "patching_rect": [ 341.0, 214.0, 24.0, 24.0 ]
                }
            },
            {
                "box": {
                    "id": "obj-22",
                    "maxclass": "newobj",
                    "numinlets": 1,
                    "numoutlets": 1,
                    "outlettype": [ "signal" ],
                    "patching_rect": [ 341.0, 261.0, 39.0, 22.0 ],
                    "text": "click~"
                }
            },
            {
                "box": {
                    "id": "obj-21",
                    "maxclass": "newobj",
                    "numinlets": 4,
                    "numoutlets": 2,
                    "outlettype": [ "signal", "bang" ],
                    "patching_rect": [ 341.0, 298.0, 50.5, 22.0 ],
                    "text": "ramp~"
                }
            },
            {
                "box": {
                    "id": "obj-19",
                    "maxclass": "ezdac~",
                    "numinlets": 2,
                    "numoutlets": 0,
                    "patching_rect": [ 344.0, 741.0, 45.0, 45.0 ]
                }
            },
            {
                "box": {
                    "id": "obj-18",
                    "maxclass": "newobj",
                    "numinlets": 3,
                    "numoutlets": 1,
                    "outlettype": [ "signal" ],
                    "patching_rect": [ 341.0, 528.0, 96.0, 22.0 ],
                    "text": "wave~ mysound"
                }
            },
            {
                "box": {
                    "id": "obj-17",
                    "lastchannelcount": 0,
                    "maxclass": "live.gain~",
                    "numinlets": 2,
                    "numoutlets": 5,
                    "outlettype": [ "signal", "signal", "", "float", "list" ],
                    "parameter_enable": 1,
                    "patching_rect": [ 341.0, 568.0, 48.0, 136.0 ],
                    "saved_attribute_attributes": {
                        "valueof": {
                            "parameter_longname": "live.gain~",
                            "parameter_mmax": 6.0,
                            "parameter_mmin": -70.0,
                            "parameter_modmode": 3,
                            "parameter_shortname": "live.gain~",
                            "parameter_type": 0,
                            "parameter_unitstyle": 4
                        }
                    },
                    "varname": "live.gain~"
                }
            },
            {
                "box": {
                    "id": "obj-14",
                    "maxclass": "number",
                    "numinlets": 1,
                    "numoutlets": 2,
                    "outlettype": [ "", "bang" ],
                    "parameter_enable": 0,
                    "patching_rect": [ 937.0, 391.0, 50.0, 22.0 ]
                }
            },
            {
                "box": {
                    "id": "obj-9",
                    "maxclass": "button",
                    "numinlets": 1,
                    "numoutlets": 1,
                    "outlettype": [ "bang" ],
                    "parameter_enable": 0,
                    "patching_rect": [ 884.0, 273.0, 24.0, 24.0 ]
                }
            },
            {
                "box": {
                    "id": "obj-8",
                    "maxclass": "newobj",
                    "numinlets": 1,
                    "numoutlets": 10,
                    "outlettype": [ "float", "list", "float", "float", "float", "float", "float", "", "int", "" ],
                    "patching_rect": [ 884.0, 308.0, 113.5, 22.0 ],
                    "text": "info~ mysound"
                }
            },
            {
                "box": {
                    "buffername": "mysound",
                    "id": "obj-7",
                    "maxclass": "waveform~",
                    "numinlets": 5,
                    "numoutlets": 6,
                    "outlettype": [ "float", "float", "float", "float", "list", "" ],
                    "patching_rect": [ 575.0, 135.0, 256.0, 64.0 ],
                    "setmode": 1
                }
            },
            {
                "box": {
                    "id": "obj-1",
                    "maxclass": "newobj",
                    "numinlets": 1,
                    "numoutlets": 2,
                    "outlettype": [ "float", "bang" ],
                    "patching_rect": [ 884.0, 226.0, 165.0, 22.0 ],
                    "text": "buffer~ mysound femvoice.aif"
                }
            }
        ],
        "lines": [
            {
                "patchline": {
                    "destination": [ "obj-9", 0 ],
                    "source": [ "obj-1", 1 ]
                }
            },
            {
                "patchline": {
                    "destination": [ "obj-19", 1 ],
                    "order": 0,
                    "source": [ "obj-17", 0 ]
                }
            },
            {
                "patchline": {
                    "destination": [ "obj-19", 0 ],
                    "order": 1,
                    "source": [ "obj-17", 0 ]
                }
            },
            {
                "patchline": {
                    "destination": [ "obj-17", 0 ],
                    "source": [ "obj-18", 0 ]
                }
            },
            {
                "patchline": {
                    "destination": [ "obj-34", 0 ],
                    "source": [ "obj-21", 0 ]
                }
            },
            {
                "patchline": {
                    "destination": [ "obj-21", 0 ],
                    "source": [ "obj-22", 0 ]
                }
            },
            {
                "patchline": {
                    "destination": [ "obj-22", 0 ],
                    "source": [ "obj-23", 0 ]
                }
            },
            {
                "patchline": {
                    "destination": [ "obj-24", 0 ],
                    "source": [ "obj-25", 0 ]
                }
            },
            {
                "patchline": {
                    "destination": [ "obj-7", 0 ],
                    "source": [ "obj-26", 0 ]
                }
            },
            {
                "patchline": {
                    "destination": [ "obj-35", 0 ],
                    "source": [ "obj-34", 0 ]
                }
            },
            {
                "patchline": {
                    "destination": [ "obj-18", 0 ],
                    "order": 1,
                    "source": [ "obj-35", 0 ]
                }
            },
            {
                "patchline": {
                    "destination": [ "obj-25", 0 ],
                    "order": 0,
                    "source": [ "obj-35", 0 ]
                }
            },
            {
                "patchline": {
                    "destination": [ "obj-21", 1 ],
                    "order": 1,
                    "source": [ "obj-43", 0 ]
                }
            },
            {
                "patchline": {
                    "destination": [ "obj-44", 0 ],
                    "order": 0,
                    "source": [ "obj-43", 0 ]
                }
            },
            {
                "patchline": {
                    "destination": [ "obj-34", 1 ],
                    "source": [ "obj-44", 0 ]
                }
            },
            {
                "patchline": {
                    "destination": [ "obj-35", 1 ],
                    "source": [ "obj-46", 0 ]
                }
            },
            {
                "patchline": {
                    "destination": [ "obj-40", 0 ],
                    "order": 2,
                    "source": [ "obj-7", 2 ]
                }
            },
            {
                "patchline": {
                    "destination": [ "obj-41", 0 ],
                    "order": 0,
                    "source": [ "obj-7", 3 ]
                }
            },
            {
                "patchline": {
                    "destination": [ "obj-43", 1 ],
                    "order": 1,
                    "source": [ "obj-7", 3 ]
                }
            },
            {
                "patchline": {
                    "destination": [ "obj-43", 0 ],
                    "order": 0,
                    "source": [ "obj-7", 2 ]
                }
            },
            {
                "patchline": {
                    "destination": [ "obj-46", 0 ],
                    "order": 1,
                    "source": [ "obj-7", 2 ]
                }
            },
            {
                "patchline": {
                    "destination": [ "obj-14", 0 ],
                    "order": 0,
                    "source": [ "obj-8", 6 ]
                }
            },
            {
                "patchline": {
                    "destination": [ "obj-44", 1 ],
                    "order": 1,
                    "source": [ "obj-8", 6 ]
                }
            },
            {
                "patchline": {
                    "destination": [ "obj-46", 1 ],
                    "order": 2,
                    "source": [ "obj-8", 6 ]
                }
            },
            {
                "patchline": {
                    "destination": [ "obj-8", 0 ],
                    "source": [ "obj-9", 0 ]
                }
            }
        ],
        "parameters": {
            "obj-17": [ "live.gain~", "live.gain~", 0 ],
            "parameterbanks": {
                "0": {
                    "index": 0,
                    "name": "",
                    "parameters": [ "-", "-", "-", "-", "-", "-", "-", "-" ],
                    "buttons": [ "-", "-", "-", "-", "-", "-", "-", "-" ]
                }
            },
            "inherited_shortname": 1
        },
        "autosave": 0
    }
}