{
    "patcher": {
        "fileversion": 1,
        "appversion": {
            "major": 9,
            "minor": 1,
            "revision": 2,
            "architecture": "x64",
            "modernui": 1
        },
        "classnamespace": "box",
        "rect": [ 34.0, 77.0, 1533.0, 908.0 ],
        "boxes": [
            {
                "box": {
                    "id": "obj-89",
                    "maxclass": "number",
                    "numinlets": 1,
                    "numoutlets": 2,
                    "outlettype": [ "", "bang" ],
                    "parameter_enable": 0,
                    "patching_rect": [ 380.48781394958496, 123.17073464393616, 50.0, 22.0 ],
                    "presentation": 1,
                    "presentation_rect": [ 392.68293619155884, 386.5853750705719, 50.0, 22.0 ]
                }
            },
            {
                "box": {
                    "id": "obj-90",
                    "maxclass": "number",
                    "numinlets": 1,
                    "numoutlets": 2,
                    "outlettype": [ "", "bang" ],
                    "parameter_enable": 0,
                    "patching_rect": [ 439.02440071105957, 123.17073464393616, 50.0, 22.0 ],
                    "presentation": 1,
                    "presentation_rect": [ 392.68293619155884, 426.8292784690857, 50.0, 22.0 ]
                }
            },
            {
                "box": {
                    "id": "obj-93",
                    "maxclass": "number",
                    "numinlets": 1,
                    "numoutlets": 2,
                    "outlettype": [ "", "bang" ],
                    "parameter_enable": 0,
                    "patching_rect": [ 500.00001192092896, 123.17073464393616, 50.0, 22.0 ],
                    "presentation": 1,
                    "presentation_rect": [ 392.68293619155884, 457.3170840740204, 50.0, 22.0 ]
                }
            },
            {
                "box": {
                    "id": "obj-105",
                    "maxclass": "number",
                    "numinlets": 1,
                    "numoutlets": 2,
                    "outlettype": [ "", "bang" ],
                    "parameter_enable": 0,
                    "patching_rect": [ 562.1951353549957, 123.17073464393616, 50.0, 22.0 ],
                    "presentation": 1,
                    "presentation_rect": [ 392.68293619155884, 491.46342635154724, 50.0, 22.0 ]
                }
            },
            {
                "box": {
                    "id": "obj-109",
                    "maxclass": "newobj",
                    "numinlets": 0,
                    "numoutlets": 1,
                    "outlettype": [ "" ],
                    "patching_rect": [ 564.6341598033905, 70.73170900344849, 46.0, 22.0 ],
                    "text": "r note9"
                }
            },
            {
                "box": {
                    "id": "obj-110",
                    "maxclass": "newobj",
                    "numinlets": 0,
                    "numoutlets": 1,
                    "outlettype": [ "" ],
                    "patching_rect": [ 501.21952414512634, 70.73170900344849, 46.0, 22.0 ],
                    "text": "r note8"
                }
            },
            {
                "box": {
                    "id": "obj-111",
                    "maxclass": "newobj",
                    "numinlets": 0,
                    "numoutlets": 1,
                    "outlettype": [ "" ],
                    "patching_rect": [ 440.24391293525696, 70.73170900344849, 46.0, 22.0 ],
                    "text": "r note7"
                }
            },
            {
                "box": {
                    "id": "obj-112",
                    "maxclass": "newobj",
                    "numinlets": 0,
                    "numoutlets": 1,
                    "outlettype": [ "" ],
                    "patching_rect": [ 380.48781394958496, 70.73170900344849, 46.0, 22.0 ],
                    "text": "r note6"
                }
            },
            {
                "box": {
                    "id": "obj-80",
                    "maxclass": "newobj",
                    "numinlets": 1,
                    "numoutlets": 0,
                    "patching_rect": [ 1352.439056634903, 739.024407863617, 48.0, 22.0 ],
                    "text": "s note9"
                }
            },
            {
                "box": {
                    "id": "obj-81",
                    "maxclass": "newobj",
                    "numinlets": 1,
                    "numoutlets": 0,
                    "patching_rect": [ 1290.2439332008362, 739.024407863617, 48.0, 22.0 ],
                    "text": "s note8"
                }
            },
            {
                "box": {
                    "id": "obj-82",
                    "maxclass": "newobj",
                    "numinlets": 1,
                    "numoutlets": 0,
                    "patching_rect": [ 1229.2683219909668, 739.024407863617, 48.0, 22.0 ],
                    "text": "s note7"
                }
            },
            {
                "box": {
                    "id": "obj-83",
                    "maxclass": "newobj",
                    "numinlets": 1,
                    "numoutlets": 0,
                    "patching_rect": [ 1168.2927107810974, 739.024407863617, 48.0, 22.0 ],
                    "text": "s note6"
                }
            },
            {
                "box": {
                    "id": "obj-85",
                    "maxclass": "newobj",
                    "numinlets": 2,
                    "numoutlets": 2,
                    "outlettype": [ "bang", "" ],
                    "patching_rect": [ 1346.341495513916, 693.9024555683136, 34.0, 22.0 ],
                    "text": "sel 1"
                }
            },
            {
                "box": {
                    "id": "obj-86",
                    "maxclass": "newobj",
                    "numinlets": 2,
                    "numoutlets": 2,
                    "outlettype": [ "bang", "" ],
                    "patching_rect": [ 1302.43905544281, 693.9024555683136, 34.0, 22.0 ],
                    "text": "sel 1"
                }
            },
            {
                "box": {
                    "id": "obj-87",
                    "maxclass": "newobj",
                    "numinlets": 2,
                    "numoutlets": 2,
                    "outlettype": [ "bang", "" ],
                    "patching_rect": [ 1258.536615371704, 693.9024555683136, 34.0, 22.0 ],
                    "text": "sel 1"
                }
            },
            {
                "box": {
                    "id": "obj-88",
                    "maxclass": "newobj",
                    "numinlets": 2,
                    "numoutlets": 2,
                    "outlettype": [ "bang", "" ],
                    "patching_rect": [ 1214.6341753005981, 693.9024555683136, 34.0, 22.0 ],
                    "text": "sel 1"
                }
            },
            {
                "box": {
                    "id": "obj-78",
                    "maxclass": "comment",
                    "numinlets": 1,
                    "numoutlets": 0,
                    "patching_rect": [ 592.6829409599304, 443.9024496078491, 150.0, 20.0 ],
                    "presentation": 1,
                    "presentation_rect": [ 567.1707441806793, 625.1540372371674, 150.0, 20.0 ],
                    "text": "preset sounds"
                }
            },
            {
                "box": {
                    "id": "obj-76",
                    "linecount": 2,
                    "maxclass": "comment",
                    "numinlets": 1,
                    "numoutlets": 0,
                    "patching_rect": [ 228.0487859249115, 889.0244114398956, 150.0, 34.0 ],
                    "presentation": 1,
                    "presentation_linecount": 2,
                    "presentation_rect": [ 395.21952056884766, 156.09756469726562, 45.121952295303345, 34.0 ],
                    "text": "notes\n(midi)"
                }
            },
            {
                "box": {
                    "id": "obj-73",
                    "maxclass": "comment",
                    "numinlets": 1,
                    "numoutlets": 0,
                    "patching_rect": [ 800.0000190734863, 841.4634346961975, 150.0, 20.0 ],
                    "presentation": 1,
                    "presentation_rect": [ 583.0244030952454, 101.21951460838318, 150.0, 20.0 ],
                    "text": "preset songs"
                }
            },
            {
                "box": {
                    "id": "obj-70",
                    "maxclass": "kslider",
                    "numinlets": 2,
                    "numoutlets": 2,
                    "outlettype": [ "int", "int" ],
                    "parameter_enable": 0,
                    "patching_rect": [ 229.2682981491089, 552.4390375614166, 336.0, 53.0 ]
                }
            },
            {
                "box": {
                    "id": "obj-3",
                    "maxclass": "newobj",
                    "numinlets": 2,
                    "numoutlets": 1,
                    "outlettype": [ "int" ],
                    "patching_rect": [ 1224.0, 1269.0, 29.5, 22.0 ],
                    "text": "1"
                }
            },
            {
                "box": {
                    "id": "obj-2",
                    "maxclass": "newobj",
                    "numinlets": 1,
                    "numoutlets": 1,
                    "outlettype": [ "bang" ],
                    "patching_rect": [ 1273.0, 1203.0, 58.0, 22.0 ],
                    "text": "loadbang"
                }
            },
            {
                "box": {
                    "bubblesize": 25,
                    "id": "obj-36",
                    "maxclass": "preset",
                    "numinlets": 1,
                    "numoutlets": 5,
                    "outlettype": [ "preset", "int", "preset", "int", "" ],
                    "patching_rect": [ 1125.0, 1331.0, 100.0, 40.0 ],
                    "presentation": 1,
                    "presentation_rect": [ 459.8536684513092, 647.1052572727203, 354.8780572414398, 35.36585450172424 ],
                    "preset_data": [
                        {
                            "number": 1,
                            "data": [ 5, "obj-96", "number", "int", 1110, 5, "obj-95", "number", "float", 0.5, 5, "obj-97", "number", "int", 21, 5, "obj-98", "number", "int", 287, 5, "obj-162", "number", "float", 0.7008299827575684, 5, "obj-165", "number", "float", 200.0, 5, "obj-16", "number", "int", 15, 5, "obj-48", "number", "int", 84, 5, "obj-92", "umenu", "int", 2, 5, "obj-49", "umenu", "int", 2 ]
                        },
                        {
                            "number": 2,
                            "data": [ 5, "obj-96", "number", "int", 1110, 5, "obj-95", "number", "float", 0.5, 5, "obj-97", "number", "int", 21, 5, "obj-98", "number", "int", 287, 5, "obj-162", "number", "float", 0.9097123742103577, 5, "obj-165", "number", "float", 483.0, 5, "obj-16", "number", "int", 6, 5, "obj-48", "number", "int", 3, 5, "obj-92", "umenu", "int", 1, 5, "obj-49", "umenu", "int", 2 ]
                        },
                        {
                            "number": 3,
                            "data": [ 5, "obj-96", "number", "int", 1110, 5, "obj-95", "number", "float", 0.5, 5, "obj-97", "number", "int", 21, 5, "obj-98", "number", "int", 287, 5, "obj-162", "number", "float", 0.5792710781097412, 5, "obj-165", "number", "float", 483.0, 5, "obj-16", "number", "int", 12, 5, "obj-48", "number", "int", 8, 5, "obj-92", "umenu", "int", 4, 5, "obj-49", "umenu", "int", 1 ]
                        },
                        {
                            "number": 4,
                            "data": [ 5, "obj-96", "number", "int", 1110, 5, "obj-95", "number", "float", 0.5, 5, "obj-97", "number", "int", 21, 5, "obj-98", "number", "int", 287, 5, "obj-162", "number", "float", 0.32880905270576477, 5, "obj-165", "number", "float", 483.0, 5, "obj-16", "number", "int", 12, 5, "obj-48", "number", "int", 8, 5, "obj-92", "umenu", "int", 3, 5, "obj-49", "umenu", "int", 1 ]
                        }
                    ]
                }
            },
            {
                "box": {
                    "format": 6,
                    "id": "obj-165",
                    "maxclass": "flonum",
                    "maximum": 8000.0,
                    "minimum": 200.0,
                    "numinlets": 1,
                    "numoutlets": 2,
                    "outlettype": [ "", "bang" ],
                    "parameter_enable": 0,
                    "patching_rect": [ 590.0, 1907.0, 50.0, 22.0 ],
                    "presentation": 1,
                    "presentation_rect": [ 753.7561144828796, 882.4711165428162, 50.0, 22.0 ]
                }
            },
            {
                "box": {
                    "id": "obj-163",
                    "maxclass": "comment",
                    "numinlets": 1,
                    "numoutlets": 0,
                    "patching_rect": [ 579.0, 1886.0, 150.0, 20.0 ],
                    "presentation": 1,
                    "presentation_rect": [ 753.7561144828796, 853.2028231620789, 49.87804889678955, 20.0 ],
                    "text": "cutoff"
                }
            },
            {
                "box": {
                    "format": 6,
                    "id": "obj-162",
                    "maxclass": "flonum",
                    "numinlets": 1,
                    "numoutlets": 2,
                    "outlettype": [ "", "bang" ],
                    "parameter_enable": 0,
                    "patching_rect": [ 834.0, 1911.0, 50.0, 22.0 ]
                }
            },
            {
                "box": {
                    "id": "obj-156",
                    "maxclass": "comment",
                    "numinlets": 1,
                    "numoutlets": 0,
                    "patching_rect": [ 802.0, 1840.0, 150.0, 20.0 ],
                    "presentation": 1,
                    "presentation_rect": [ 820.829286813736, 856.861359834671, 136.0365891456604, 20.0 ],
                    "text": "resonance"
                }
            },
            {
                "box": {
                    "floatoutput": 1,
                    "id": "obj-154",
                    "maxclass": "slider",
                    "numinlets": 1,
                    "numoutlets": 1,
                    "orientation": 1,
                    "outlettype": [ "" ],
                    "parameter_enable": 0,
                    "patching_rect": [ 796.0, 1869.0, 174.6268594264984, 17.164178490638733 ],
                    "presentation": 1,
                    "presentation_rect": [ 820.829286813736, 884.9101409912109, 160.97561359405518, 17.073171138763428 ],
                    "size": 1.0
                }
            },
            {
                "box": {
                    "id": "obj-153",
                    "maxclass": "newobj",
                    "numinlets": 3,
                    "numoutlets": 1,
                    "outlettype": [ "multichannelsignal" ],
                    "patching_rect": [ 760.0, 2000.0, 61.0, 22.0 ],
                    "text": "mc.lores~"
                }
            },
            {
                "box": {
                    "fontname": "Arial",
                    "fontsize": 11.595187,
                    "id": "obj-38",
                    "maxclass": "newobj",
                    "numinlets": 3,
                    "numoutlets": 1,
                    "outlettype": [ "" ],
                    "patching_rect": [ 366.0, 1108.0, 50.0, 22.0 ],
                    "text": "switch 2"
                }
            },
            {
                "box": {
                    "id": "obj-39",
                    "maxclass": "newobj",
                    "numinlets": 2,
                    "numoutlets": 2,
                    "outlettype": [ "int", "int" ],
                    "patching_rect": [ 470.0, 892.0, 55.0, 22.0 ],
                    "text": "stripnote"
                }
            },
            {
                "box": {
                    "fontface": 0,
                    "fontname": "Arial",
                    "fontsize": 12.0,
                    "id": "obj-127",
                    "maxclass": "mc.number~",
                    "mode": 2,
                    "numinlets": 2,
                    "numoutlets": 3,
                    "outlettype": [ "multichannelsignal", "float", "int" ],
                    "patching_rect": [ 161.0, 1341.0, 56.0, 34.0 ],
                    "sig": 3.0
                }
            },
            {
                "box": {
                    "bgcolor": [ 0.094118, 0.113725, 0.137255, 1.0 ],
                    "fgcolor": [ 1.0, 0.603922, 0.0, 1.0 ],
                    "id": "obj-10",
                    "interval": 50,
                    "logfreq": 1,
                    "markercolor": [ 0.301961, 0.337255, 0.403922, 1.0 ],
                    "maxclass": "spectroscope~",
                    "monochrome": 0,
                    "numinlets": 2,
                    "numoutlets": 1,
                    "outlettype": [ "" ],
                    "patching_rect": [ 934.0, 1658.0, 120.0, 80.0 ],
                    "presentation": 1,
                    "presentation_rect": [ 391.5609838962555, 1014.178436756134, 251.0, 70.0 ],
                    "sonohicolor": [ 1.0, 1.0, 1.0, 1.0 ],
                    "sonolocolor": [ 0.094118, 0.113725, 0.137255, 1.0 ],
                    "sonomedcolor": [ 0.301961, 0.337255, 0.403922, 1.0 ],
                    "sonomedhicolor": [ 0.494118, 0.556863, 0.607843, 1.0 ],
                    "sonomedlocolor": [ 0.666667, 0.698039, 0.717647, 1.0 ],
                    "sonomonofgcolor": [ 0.094118, 0.113725, 0.137255, 1.0 ]
                }
            },
            {
                "box": {
                    "bgcolor": [ 0.094118, 0.113725, 0.137255, 1.0 ],
                    "fgcolor": [ 1.0, 0.603922, 0.0, 1.0 ],
                    "id": "obj-123",
                    "interval": 50,
                    "logfreq": 1,
                    "markercolor": [ 0.301961, 0.337255, 0.403922, 1.0 ],
                    "maxclass": "spectroscope~",
                    "monochrome": 0,
                    "numinlets": 2,
                    "numoutlets": 1,
                    "outlettype": [ "" ],
                    "patching_rect": [ 934.0, 1508.0, 120.0, 80.0 ],
                    "presentation": 1,
                    "presentation_rect": [ 391.5609838962555, 936.1296544075012, 251.0, 70.0 ],
                    "prototypename": "M4L.spectro.black",
                    "sono": 1,
                    "sonohicolor": [ 1.0, 1.0, 1.0, 1.0 ],
                    "sonolocolor": [ 0.094118, 0.113725, 0.137255, 1.0 ],
                    "sonomedcolor": [ 0.301961, 0.337255, 0.403922, 1.0 ],
                    "sonomedhicolor": [ 0.494118, 0.556863, 0.607843, 1.0 ],
                    "sonomedlocolor": [ 0.666667, 0.698039, 0.717647, 1.0 ],
                    "sonomonofgcolor": [ 0.094118, 0.113725, 0.137255, 1.0 ]
                }
            },
            {
                "box": {
                    "automatic": 1,
                    "id": "obj-40",
                    "maxclass": "scope~",
                    "numinlets": 2,
                    "numoutlets": 0,
                    "patching_rect": [ 737.0, 1670.0, 130.0, 130.0 ],
                    "presentation": 1,
                    "presentation_rect": [ 658.6341609954834, 936.1296544075012, 150.04940116405487, 148.0487823486328 ]
                }
            },
            {
                "box": {
                    "grid": 3,
                    "horizonal_divisions": 6,
                    "horizontal_divisions": 6,
                    "id": "obj-122",
                    "maxclass": "live.scope~",
                    "numinlets": 2,
                    "numoutlets": 1,
                    "outlettype": [ "bang" ],
                    "patching_rect": [ 710.0, 1437.0, 153.0, 141.0 ],
                    "presentation": 1,
                    "presentation_rect": [ 820.829286813736, 936.1296544075012, 160.85366129875183, 148.0487823486328 ],
                    "range": [ -0.25, 1.25 ],
                    "vertical_divisions": 6
                }
            },
            {
                "box": {
                    "id": "obj-119",
                    "linecount": 2,
                    "maxclass": "comment",
                    "numinlets": 1,
                    "numoutlets": 0,
                    "patching_rect": [ 127.0, 1034.0, 150.0, 34.0 ],
                    "presentation": 1,
                    "presentation_linecount": 3,
                    "presentation_rect": [ 584.2439153194427, 828.8125786781311, 76.82927012443542, 48.0 ],
                    "text": "frequency generation\nstyle"
                }
            },
            {
                "box": {
                    "id": "obj-115",
                    "linecount": 2,
                    "maxclass": "comment",
                    "numinlets": 1,
                    "numoutlets": 0,
                    "patching_rect": [ 312.0, 934.0, 150.0, 34.0 ],
                    "presentation": 1,
                    "presentation_linecount": 2,
                    "presentation_rect": [ 391.5609838962555, 844.6662375926971, 95.37805008888245, 34.0 ],
                    "text": "deviation amt / harmonic scale"
                }
            },
            {
                "box": {
                    "id": "obj-113",
                    "maxclass": "comment",
                    "numinlets": 1,
                    "numoutlets": 0,
                    "patching_rect": [ 447.0, 1179.0, 69.0, 20.0 ],
                    "presentation": 1,
                    "presentation_rect": [ 497.6585474014282, 856.861359834671, 69.0, 20.0 ],
                    "text": "waves amt"
                }
            },
            {
                "box": {
                    "id": "obj-108",
                    "maxclass": "comment",
                    "numinlets": 1,
                    "numoutlets": 0,
                    "patching_rect": [ 161.0, 1276.0, 99.54544973373413, 20.0 ],
                    "presentation": 1,
                    "presentation_rect": [ 675.7073321342468, 853.2028231620789, 61.02500879764557, 20.0 ],
                    "text": "wavetype"
                }
            },
            {
                "box": {
                    "id": "obj-104",
                    "maxclass": "newobj",
                    "numinlets": 2,
                    "numoutlets": 1,
                    "outlettype": [ "multichannelsignal" ],
                    "patching_rect": [ 367.0, 1478.0, 40.0, 22.0 ],
                    "text": "mc.*~"
                }
            },
            {
                "box": {
                    "id": "obj-103",
                    "maxclass": "newobj",
                    "numinlets": 5,
                    "numoutlets": 5,
                    "outlettype": [ "multichannelsignal", "multichannelsignal", "", "", "" ],
                    "patching_rect": [ 867.0, 1197.0, 204.32439613342285, 22.0 ],
                    "text": "mc.adsr~"
                }
            },
            {
                "box": {
                    "attack_slope": -0.059602648677243075,
                    "attack_time": 35.6940201094277,
                    "decay_slope": 0.18705672253589747,
                    "decay_time": 1231.6792832389165,
                    "id": "obj-94",
                    "maxclass": "live.adsrui",
                    "numinlets": 10,
                    "numoutlets": 10,
                    "outlettype": [ "", "", "", "", "", "", "", "", "", "" ],
                    "patching_rect": [ 892.0, 1062.0, 298.34803325060767, 100.66666722297668 ],
                    "presentation": 1,
                    "presentation_rect": [ 533.0244019031525, 689.7881851196289, 298.78049492836, 118.08941984176636 ],
                    "release_slope": 0.2944887453221045,
                    "release_time": 4431.198748270181,
                    "sustain": 0.7201721376465281,
                    "varname": "live-adsr[2]"
                }
            },
            {
                "box": {
                    "fontname": "Arial",
                    "fontsize": 13.0,
                    "format": 6,
                    "id": "obj-95",
                    "maxclass": "flonum",
                    "maximum": 1.0,
                    "minimum": 0.0,
                    "numinlets": 1,
                    "numoutlets": 2,
                    "outlettype": [ "", "bang" ],
                    "parameter_enable": 1,
                    "patching_rect": [ 954.0, 999.0, 52.0, 23.0 ],
                    "presentation": 1,
                    "presentation_rect": [ 392.7804961204529, 754.4223330020905, 50.0, 23.0 ],
                    "saved_attribute_attributes": {
                        "valueof": {
                            "parameter_initial": [ 0.5 ],
                            "parameter_initial_enable": 1,
                            "parameter_invisible": 1,
                            "parameter_longname": "flonum[3]",
                            "parameter_mmax": 1.0,
                            "parameter_modmode": 0,
                            "parameter_shortname": "flonum",
                            "parameter_type": 0
                        }
                    },
                    "varname": "flonum[2]"
                }
            },
            {
                "box": {
                    "fontname": "Arial",
                    "fontsize": 13.0,
                    "id": "obj-96",
                    "maxclass": "number",
                    "numinlets": 1,
                    "numoutlets": 2,
                    "outlettype": [ "", "bang" ],
                    "parameter_enable": 1,
                    "patching_rect": [ 985.0, 1028.0, 49.0, 23.0 ],
                    "presentation": 1,
                    "presentation_rect": [ 391.5609838962555, 784.9101386070251, 50.0, 23.0 ],
                    "saved_attribute_attributes": {
                        "valueof": {
                            "parameter_initial": [ 1000 ],
                            "parameter_initial_enable": 1,
                            "parameter_invisible": 1,
                            "parameter_longname": "number[10]",
                            "parameter_modmode": 0,
                            "parameter_shortname": "number[2]",
                            "parameter_type": 3
                        }
                    },
                    "varname": "number[7]"
                }
            },
            {
                "box": {
                    "fontname": "Arial",
                    "fontsize": 13.0,
                    "id": "obj-97",
                    "maxclass": "number",
                    "numinlets": 1,
                    "numoutlets": 2,
                    "outlettype": [ "", "bang" ],
                    "parameter_enable": 1,
                    "patching_rect": [ 924.0, 970.0, 49.0, 23.0 ],
                    "presentation": 1,
                    "presentation_rect": [ 391.5609838962555, 722.7150151729584, 50.0, 23.0 ],
                    "saved_attribute_attributes": {
                        "valueof": {
                            "parameter_initial": [ 100 ],
                            "parameter_initial_enable": 1,
                            "parameter_invisible": 1,
                            "parameter_longname": "number[11]",
                            "parameter_modmode": 0,
                            "parameter_shortname": "number[2]",
                            "parameter_type": 3
                        }
                    },
                    "varname": "number[8]"
                }
            },
            {
                "box": {
                    "fontname": "Arial",
                    "fontsize": 13.0,
                    "id": "obj-98",
                    "maxclass": "number",
                    "numinlets": 1,
                    "numoutlets": 2,
                    "outlettype": [ "", "bang" ],
                    "parameter_enable": 1,
                    "patching_rect": [ 889.0, 941.0, 49.0, 23.0 ],
                    "presentation": 1,
                    "presentation_rect": [ 391.5609838962555, 689.7881851196289, 50.0, 23.0 ],
                    "saved_attribute_attributes": {
                        "valueof": {
                            "parameter_initial": [ 600 ],
                            "parameter_initial_enable": 1,
                            "parameter_invisible": 1,
                            "parameter_longname": "number[12]",
                            "parameter_modmode": 0,
                            "parameter_shortname": "number[2]",
                            "parameter_type": 3
                        }
                    },
                    "varname": "number[9]"
                }
            },
            {
                "box": {
                    "fontname": "Arial",
                    "fontsize": 13.0,
                    "id": "obj-99",
                    "maxclass": "comment",
                    "numinlets": 1,
                    "numoutlets": 0,
                    "patching_rect": [ 945.0, 941.0, 73.0, 21.0 ],
                    "presentation": 1,
                    "presentation_rect": [ 446.43903398513794, 691.0076973438263, 73.0, 21.0 ],
                    "text": "attack (ms)",
                    "textcolor": [ 0.501961, 0.501961, 0.501961, 1.0 ]
                }
            },
            {
                "box": {
                    "fontname": "Arial",
                    "fontsize": 13.0,
                    "id": "obj-100",
                    "maxclass": "comment",
                    "numinlets": 1,
                    "numoutlets": 0,
                    "patching_rect": [ 977.0, 970.0, 73.0, 21.0 ],
                    "presentation": 1,
                    "presentation_rect": [ 446.43903398513794, 723.9345273971558, 73.0, 21.0 ],
                    "text": "decay (ms)",
                    "textcolor": [ 0.501961, 0.501961, 0.501961, 1.0 ]
                }
            },
            {
                "box": {
                    "fontname": "Arial",
                    "fontsize": 13.0,
                    "id": "obj-101",
                    "maxclass": "comment",
                    "numinlets": 1,
                    "numoutlets": 0,
                    "patching_rect": [ 1008.0, 999.0, 78.0, 21.0 ],
                    "presentation": 1,
                    "presentation_rect": [ 445.21952176094055, 754.4223330020905, 78.0, 21.0 ],
                    "text": "sustain gain",
                    "textcolor": [ 0.501961, 0.501961, 0.501961, 1.0 ]
                }
            },
            {
                "box": {
                    "fontname": "Arial",
                    "fontsize": 13.0,
                    "id": "obj-102",
                    "maxclass": "comment",
                    "numinlets": 1,
                    "numoutlets": 0,
                    "patching_rect": [ 1039.0, 1029.0, 81.0, 21.0 ],
                    "presentation": 1,
                    "presentation_rect": [ 444.00000953674316, 786.1296508312225, 81.0, 21.0 ],
                    "text": "release (ms)",
                    "textcolor": [ 0.501961, 0.501961, 0.501961, 1.0 ]
                }
            },
            {
                "box": {
                    "id": "obj-91",
                    "maxclass": "newobj",
                    "numinlets": 5,
                    "numoutlets": 1,
                    "outlettype": [ "multichannelsignal" ],
                    "patching_rect": [ 180.0, 1393.0, 87.0, 22.0 ],
                    "text": "mc.selector~ 4"
                }
            },
            {
                "box": {
                    "id": "obj-92",
                    "items": [ "none", ",", "sine", ",", "triangle", ",", "sawtooth", ",", "square" ],
                    "maxclass": "umenu",
                    "numinlets": 1,
                    "numoutlets": 3,
                    "outlettype": [ "int", "", "" ],
                    "parameter_enable": 0,
                    "patching_rect": [ 161.0, 1306.0, 100.0, 22.0 ],
                    "presentation": 1,
                    "presentation_rect": [ 675.7073321342468, 882.4711165428162, 61.02500879764557, 22.0 ]
                }
            },
            {
                "box": {
                    "id": "obj-47",
                    "maxclass": "number",
                    "numinlets": 1,
                    "numoutlets": 2,
                    "outlettype": [ "", "bang" ],
                    "parameter_enable": 0,
                    "patching_rect": [ 471.0, 985.0, 50.0, 22.0 ]
                }
            },
            {
                "box": {
                    "id": "obj-48",
                    "maxclass": "number",
                    "numinlets": 1,
                    "numoutlets": 2,
                    "outlettype": [ "", "bang" ],
                    "parameter_enable": 0,
                    "patching_rect": [ 370.0, 985.0, 50.0, 22.0 ],
                    "presentation": 1,
                    "presentation_rect": [ 392.7804961204529, 882.4711165428162, 50.0, 22.0 ]
                }
            },
            {
                "box": {
                    "id": "obj-49",
                    "items": [ "none", ",", "detune", ",", "harmonic" ],
                    "maxclass": "umenu",
                    "numinlets": 1,
                    "numoutlets": 3,
                    "outlettype": [ "int", "", "" ],
                    "parameter_enable": 0,
                    "patching_rect": [ 152.0, 1062.0, 100.0, 22.0 ],
                    "presentation": 1,
                    "presentation_rect": [ 585.4634275436401, 882.4711165428162, 58.53658676147461, 22.0 ]
                }
            },
            {
                "box": {
                    "id": "obj-52",
                    "maxclass": "newobj",
                    "numinlets": 3,
                    "numoutlets": 1,
                    "outlettype": [ "" ],
                    "patching_rect": [ 442.0, 1041.0, 107.0, 22.0 ],
                    "text": "pak harmonic 0. 0."
                }
            },
            {
                "box": {
                    "id": "obj-53",
                    "maxclass": "newobj",
                    "numinlets": 3,
                    "numoutlets": 1,
                    "outlettype": [ "" ],
                    "patching_rect": [ 330.0, 1041.0, 97.0, 22.0 ],
                    "text": "pak deviate 0. 0."
                }
            },
            {
                "box": {
                    "id": "obj-54",
                    "linecount": 4,
                    "maxclass": "comment",
                    "numinlets": 1,
                    "numoutlets": 0,
                    "patching_rect": [ 785.0, 1134.0, 52.0, 62.0 ],
                    "presentation_linecount": 4,
                    "text": "remaps midi velocity to 0-1"
                }
            },
            {
                "box": {
                    "id": "obj-55",
                    "maxclass": "newobj",
                    "numinlets": 2,
                    "numoutlets": 1,
                    "outlettype": [ "float" ],
                    "patching_rect": [ 845.0, 1155.0, 39.0, 22.0 ],
                    "text": "/ 127."
                }
            },
            {
                "box": {
                    "id": "obj-75",
                    "maxclass": "newobj",
                    "numinlets": 1,
                    "numoutlets": 1,
                    "outlettype": [ "" ],
                    "patching_rect": [ 470.0, 925.0, 32.0, 22.0 ],
                    "text": "mtof"
                }
            },
            {
                "box": {
                    "id": "obj-56",
                    "maxclass": "newobj",
                    "numinlets": 1,
                    "numoutlets": 1,
                    "outlettype": [ "multichannelsignal" ],
                    "patching_rect": [ 339.0, 1187.0, 50.0, 22.0 ],
                    "text": "mc.sig~"
                }
            },
            {
                "box": {
                    "id": "obj-64",
                    "maxclass": "newobj",
                    "numinlets": 3,
                    "numoutlets": 1,
                    "outlettype": [ "multichannelsignal" ],
                    "patching_rect": [ 354.0, 1306.0, 45.0, 22.0 ],
                    "text": "mc.tri~"
                }
            },
            {
                "box": {
                    "id": "obj-63",
                    "maxclass": "newobj",
                    "numinlets": 2,
                    "numoutlets": 1,
                    "outlettype": [ "multichannelsignal" ],
                    "patching_rect": [ 415.0, 1306.0, 56.0, 22.0 ],
                    "text": "mc.saw~"
                }
            },
            {
                "box": {
                    "id": "obj-62",
                    "maxclass": "newobj",
                    "numinlets": 3,
                    "numoutlets": 1,
                    "outlettype": [ "multichannelsignal" ],
                    "patching_rect": [ 486.0, 1306.0, 55.0, 22.0 ],
                    "text": "mc.rect~"
                }
            },
            {
                "box": {
                    "id": "obj-57",
                    "maxclass": "ezdac~",
                    "numinlets": 2,
                    "numoutlets": 0,
                    "patching_rect": [ 367.0, 1838.0, 45.0, 45.0 ],
                    "presentation": 1,
                    "presentation_rect": [ 897.6585569381714, 691.0076973438263, 45.0, 45.0 ]
                }
            },
            {
                "box": {
                    "id": "obj-58",
                    "maxclass": "newobj",
                    "numinlets": 2,
                    "numoutlets": 2,
                    "outlettype": [ "signal", "signal" ],
                    "patching_rect": [ 368.0, 1794.0, 44.0, 22.0 ],
                    "text": "limi~ 2"
                }
            },
            {
                "box": {
                    "id": "obj-59",
                    "lastchannelcount": 0,
                    "maxclass": "live.gain~",
                    "numinlets": 2,
                    "numoutlets": 5,
                    "outlettype": [ "signal", "signal", "", "float", "list" ],
                    "parameter_enable": 1,
                    "patching_rect": [ 367.0, 1618.0, 48.0, 136.0 ],
                    "presentation": 1,
                    "presentation_rect": [ 839.1219701766968, 689.7881851196289, 44.0, 118.0 ],
                    "saved_attribute_attributes": {
                        "valueof": {
                            "parameter_longname": "live.gain~[1]",
                            "parameter_mmax": 6.0,
                            "parameter_mmin": -70.0,
                            "parameter_modmode": 3,
                            "parameter_shortname": "live.gain~[1]",
                            "parameter_type": 0,
                            "parameter_unitstyle": 4
                        }
                    },
                    "varname": "live.gain~[1]"
                }
            },
            {
                "box": {
                    "id": "obj-60",
                    "maxclass": "newobj",
                    "numinlets": 1,
                    "numoutlets": 2,
                    "outlettype": [ "signal", "signal" ],
                    "patching_rect": [ 367.0, 1575.0, 84.0, 22.0 ],
                    "text": "mc.unpack~ 2"
                }
            },
            {
                "box": {
                    "id": "obj-61",
                    "maxclass": "newobj",
                    "numinlets": 2,
                    "numoutlets": 1,
                    "outlettype": [ "multichannelsignal" ],
                    "patching_rect": [ 367.0, 1525.0, 164.0, 22.0 ],
                    "text": "mc.mixdown~ 2 @autogain 1"
                }
            },
            {
                "box": {
                    "id": "obj-65",
                    "maxclass": "newobj",
                    "numinlets": 2,
                    "numoutlets": 1,
                    "outlettype": [ "multichannelsignal" ],
                    "patching_rect": [ 279.0, 1306.0, 62.0, 22.0 ],
                    "text": "mc.cycle~"
                }
            },
            {
                "box": {
                    "attr": "chans",
                    "id": "obj-11",
                    "maxclass": "attrui",
                    "numinlets": 1,
                    "numoutlets": 1,
                    "outlettype": [ "" ],
                    "parameter_enable": 0,
                    "patching_rect": [ 556.0, 1231.0, 150.0, 22.0 ]
                }
            },
            {
                "box": {
                    "attr": "chans",
                    "id": "obj-66",
                    "maxclass": "attrui",
                    "numinlets": 1,
                    "numoutlets": 1,
                    "outlettype": [ "" ],
                    "parameter_enable": 0,
                    "patching_rect": [ 556.0, 1256.0, 150.0, 22.0 ]
                }
            },
            {
                "box": {
                    "attr": "chans",
                    "id": "obj-67",
                    "maxclass": "attrui",
                    "numinlets": 1,
                    "numoutlets": 1,
                    "outlettype": [ "" ],
                    "parameter_enable": 0,
                    "patching_rect": [ 556.0, 1203.0, 150.0, 22.0 ]
                }
            },
            {
                "box": {
                    "attr": "chans",
                    "id": "obj-68",
                    "maxclass": "attrui",
                    "numinlets": 1,
                    "numoutlets": 1,
                    "outlettype": [ "" ],
                    "parameter_enable": 0,
                    "patching_rect": [ 556.0, 1284.0, 150.0, 22.0 ]
                }
            },
            {
                "box": {
                    "attr": "chans",
                    "id": "obj-69",
                    "maxclass": "attrui",
                    "numinlets": 1,
                    "numoutlets": 1,
                    "outlettype": [ "" ],
                    "parameter_enable": 0,
                    "patching_rect": [ 556.0, 1178.0, 150.0, 22.0 ]
                }
            },
            {
                "box": {
                    "id": "obj-16",
                    "maxclass": "number",
                    "numinlets": 1,
                    "numoutlets": 2,
                    "outlettype": [ "", "bang" ],
                    "parameter_enable": 0,
                    "patching_rect": [ 471.0, 1207.0, 50.0, 22.0 ],
                    "presentation": 1,
                    "presentation_rect": [ 502.5365962982178, 882.4711165428162, 50.0, 22.0 ]
                }
            },
            {
                "box": {
                    "attr": "chans",
                    "id": "obj-129",
                    "maxclass": "attrui",
                    "numinlets": 1,
                    "numoutlets": 1,
                    "outlettype": [ "" ],
                    "parameter_enable": 0,
                    "patching_rect": [ 556.0, 1315.0, 150.0, 22.0 ]
                }
            },
            {
                "box": {
                    "bubblesize": 25,
                    "id": "obj-35",
                    "maxclass": "preset",
                    "numinlets": 1,
                    "numoutlets": 5,
                    "outlettype": [ "preset", "int", "preset", "int", "" ],
                    "patching_rect": [ 1203.6585652828217, 70.73170900344849, 92.68292903900146, 41.46341562271118 ],
                    "presentation": 1,
                    "presentation_rect": [ 459.8536684513092, 125.60975909233093, 354.8780572414398, 35.36585450172424 ],
                    "preset_data": [
                        {
                            "number": 1,
                            "data": [ 484, "obj-37", "matrixctrl", "list", 0, 0, 0.0, 0, 1, 1.0, 0, 2, 0.0, 0, 3, 0.0, 0, 4, 0.0, 0, 5, 0.0, 0, 6, 0.0, 0, 7, 0.0, 0, 8, 0.0, 0, 9, 0.0, 1, 0, 0.0, 1, 1, 1.0, 1, 2, 0.0, 1, 3, 0.0, 1, 4, 0.0, 1, 5, 0.0, 1, 6, 0.0, 1, 7, 0.0, 1, 8, 0.0, 1, 9, 0.0, 2, 0, 0.0, 2, 1, 0.0, 2, 2, 1.0, 2, 3, 0.0, 2, 4, 0.0, 2, 5, 0.0, 2, 6, 0.0, 2, 7, 0.0, 2, 8, 0.0, 2, 9, 0.0, 3, 0, 0.0, 3, 1, 0.0, 3, 2, 1.0, 3, 3, 0.0, 3, 4, 0.0, 3, 5, 0.0, 3, 6, 0.0, 3, 7, 0.0, 3, 8, 0.0, 3, 9, 0.0, 4, 0, 0.0, 4, 1, 0.0, 4, 2, 0.0, 4, 3, 1.0, 4, 4, 0.0, 4, 5, 0.0, 4, 6, 0.0, 4, 7, 0.0, 4, 8, 0.0, 4, 9, 0.0, 5, 0, 0.0, 5, 1, 0.0, 5, 2, 0.0, 5, 3, 1.0, 5, 4, 0.0, 5, 5, 0.0, 5, 6, 0.0, 5, 7, 0.0, 5, 8, 0.0, 5, 9, 0.0, 6, 0, 0.0, 6, 1, 0.0, 6, 2, 1.0, 6, 3, 0.0, 6, 4, 0.0, 6, 5, 0.0, 6, 6, 0.0, 6, 7, 0.0, 6, 8, 0.0, 6, 9, 0.0, 7, 0, 0.0, 7, 1, 0.0, 7, 2, 0.0, 7, 3, 0.0, 7, 4, 0.0, 7, 5, 0.0, 7, 6, 0.0, 7, 7, 0.0, 7, 8, 0.0, 7, 9, 0.0, 8, 0, 0.0, 8, 1, 0.0, 8, 2, 0.0, 8, 3, 0.0, 8, 4, 1.0, 8, 5, 0.0, 8, 6, 0.0, 8, 7, 0.0, 8, 8, 0.0, 8, 9, 0.0, 9, 0, 0.0, 9, 1, 0.0, 9, 2, 0.0, 9, 3, 0.0, 9, 4, 1.0, 9, 5, 0.0, 9, 6, 0.0, 9, 7, 0.0, 9, 8, 0.0, 9, 9, 0.0, 10, 0, 1.0, 10, 1, 0.0, 10, 2, 0.0, 10, 3, 0.0, 10, 4, 0.0, 10, 5, 1.0, 10, 6, 0.0, 10, 7, 0.0, 10, 8, 0.0, 10, 9, 0.0, 11, 0, 0.0, 11, 1, 0.0, 11, 2, 0.0, 11, 3, 0.0, 11, 4, 0.0, 11, 5, 1.0, 11, 6, 0.0, 11, 7, 0.0, 11, 8, 0.0, 11, 9, 0.0, 12, 0, 0.0, 12, 1, 0.0, 12, 2, 0.0, 12, 3, 0.0, 12, 4, 0.0, 12, 5, 0.0, 12, 6, 1.0, 12, 7, 0.0, 12, 8, 0.0, 12, 9, 0.0, 13, 0, 0.0, 13, 1, 0.0, 13, 2, 0.0, 13, 3, 0.0, 13, 4, 0.0, 13, 5, 0.0, 13, 6, 1.0, 13, 7, 0.0, 13, 8, 0.0, 13, 9, 0.0, 14, 0, 0.0, 14, 1, 1.0, 14, 2, 0.0, 14, 3, 0.0, 14, 4, 0.0, 14, 5, 0.0, 14, 6, 0.0, 14, 7, 0.0, 14, 8, 0.0, 14, 9, 0.0, 15, 0, 0.0, 15, 1, 0.0, 15, 2, 0.0, 15, 3, 0.0, 15, 4, 0.0, 15, 5, 0.0, 15, 6, 0.0, 15, 7, 0.0, 15, 8, 0.0, 15, 9, 0.0, 5, "obj-1", "number", "int", 120, 5, "obj-105", "number", "int", 0, 5, "obj-93", "number", "int", 0, 5, "obj-90", "number", "int", 0, 5, "obj-89", "number", "int", 62, 5, "obj-29", "number", "int", 64, 5, "obj-30", "number", "int", 65, 5, "obj-31", "number", "int", 69, 5, "obj-32", "number", "int", 67 ]
                        }
                    ]
                }
            },
            {
                "box": {
                    "id": "obj-34",
                    "maxclass": "number",
                    "numinlets": 1,
                    "numoutlets": 2,
                    "outlettype": [ "", "bang" ],
                    "parameter_enable": 0,
                    "patching_rect": [ 229.2682981491089, 334.0, 50.0, 22.0 ]
                }
            },
            {
                "box": {
                    "id": "obj-33",
                    "maxclass": "number",
                    "numinlets": 1,
                    "numoutlets": 2,
                    "outlettype": [ "", "bang" ],
                    "parameter_enable": 0,
                    "patching_rect": [ 81.70731902122498, 123.17073464393616, 50.0, 22.0 ],
                    "presentation": 1,
                    "presentation_rect": [ 392.68293619155884, 212.19512701034546, 50.0, 22.0 ]
                }
            },
            {
                "box": {
                    "id": "obj-32",
                    "maxclass": "number",
                    "numinlets": 1,
                    "numoutlets": 2,
                    "outlettype": [ "", "bang" ],
                    "parameter_enable": 0,
                    "patching_rect": [ 140.24390578269958, 123.17073464393616, 50.0, 22.0 ],
                    "presentation": 1,
                    "presentation_rect": [ 392.68293619155884, 246.34146928787231, 50.0, 22.0 ]
                }
            },
            {
                "box": {
                    "id": "obj-31",
                    "maxclass": "number",
                    "numinlets": 1,
                    "numoutlets": 2,
                    "outlettype": [ "", "bang" ],
                    "parameter_enable": 0,
                    "patching_rect": [ 201.21951699256897, 123.17073464393616, 50.0, 22.0 ],
                    "presentation": 1,
                    "presentation_rect": [ 392.68293619155884, 279.2682993412018, 50.0, 22.0 ]
                }
            },
            {
                "box": {
                    "id": "obj-30",
                    "maxclass": "number",
                    "numinlets": 1,
                    "numoutlets": 2,
                    "outlettype": [ "", "bang" ],
                    "parameter_enable": 0,
                    "patching_rect": [ 263.41464042663574, 123.17073464393616, 50.0, 22.0 ],
                    "presentation": 1,
                    "presentation_rect": [ 392.68293619155884, 315.8536660671234, 50.0, 22.0 ]
                }
            },
            {
                "box": {
                    "id": "obj-29",
                    "maxclass": "number",
                    "numinlets": 1,
                    "numoutlets": 2,
                    "outlettype": [ "", "bang" ],
                    "parameter_enable": 0,
                    "patching_rect": [ 324.3902516365051, 123.17073464393616, 50.0, 22.0 ],
                    "presentation": 1,
                    "presentation_rect": [ 392.68293619155884, 350.00000834465027, 50.0, 22.0 ]
                }
            },
            {
                "box": {
                    "id": "obj-24",
                    "maxclass": "newobj",
                    "numinlets": 0,
                    "numoutlets": 1,
                    "outlettype": [ "" ],
                    "patching_rect": [ 325.6097638607025, 70.73170900344849, 46.0, 22.0 ],
                    "text": "r note5"
                }
            },
            {
                "box": {
                    "id": "obj-25",
                    "maxclass": "newobj",
                    "numinlets": 0,
                    "numoutlets": 1,
                    "outlettype": [ "" ],
                    "patching_rect": [ 265.8536648750305, 70.73170900344849, 46.0, 22.0 ],
                    "text": "r note4"
                }
            },
            {
                "box": {
                    "id": "obj-26",
                    "maxclass": "newobj",
                    "numinlets": 0,
                    "numoutlets": 1,
                    "outlettype": [ "" ],
                    "patching_rect": [ 202.43902921676636, 70.73170900344849, 46.0, 22.0 ],
                    "text": "r note3"
                }
            },
            {
                "box": {
                    "id": "obj-27",
                    "maxclass": "newobj",
                    "numinlets": 0,
                    "numoutlets": 1,
                    "outlettype": [ "" ],
                    "patching_rect": [ 141.46341800689697, 70.73170900344849, 46.0, 22.0 ],
                    "text": "r note2"
                }
            },
            {
                "box": {
                    "id": "obj-28",
                    "maxclass": "newobj",
                    "numinlets": 0,
                    "numoutlets": 1,
                    "outlettype": [ "" ],
                    "patching_rect": [ 81.70731902122498, 70.73170900344849, 46.0, 22.0 ],
                    "text": "r note1"
                }
            },
            {
                "box": {
                    "id": "obj-22",
                    "maxclass": "newobj",
                    "numinlets": 1,
                    "numoutlets": 0,
                    "patching_rect": [ 1104.8780751228333, 739.024407863617, 48.0, 22.0 ],
                    "text": "s note5"
                }
            },
            {
                "box": {
                    "id": "obj-21",
                    "maxclass": "newobj",
                    "numinlets": 1,
                    "numoutlets": 0,
                    "patching_rect": [ 1045.1219761371613, 739.024407863617, 48.0, 22.0 ],
                    "text": "s note4"
                }
            },
            {
                "box": {
                    "id": "obj-20",
                    "maxclass": "newobj",
                    "numinlets": 1,
                    "numoutlets": 0,
                    "patching_rect": [ 982.9268527030945, 739.024407863617, 48.0, 22.0 ],
                    "text": "s note3"
                }
            },
            {
                "box": {
                    "id": "obj-19",
                    "maxclass": "newobj",
                    "numinlets": 1,
                    "numoutlets": 0,
                    "patching_rect": [ 921.9512414932251, 739.024407863617, 48.0, 22.0 ],
                    "text": "s note2"
                }
            },
            {
                "box": {
                    "id": "obj-18",
                    "maxclass": "newobj",
                    "numinlets": 1,
                    "numoutlets": 0,
                    "patching_rect": [ 860.9756302833557, 739.024407863617, 48.0, 22.0 ],
                    "text": "s note1"
                }
            },
            {
                "box": {
                    "id": "obj-17",
                    "maxclass": "newobj",
                    "numinlets": 2,
                    "numoutlets": 2,
                    "outlettype": [ "bang", "" ],
                    "patching_rect": [ 1085.365879535675, 693.9024555683136, 34.0, 22.0 ],
                    "text": "sel 1"
                }
            },
            {
                "box": {
                    "id": "obj-14",
                    "maxclass": "newobj",
                    "numinlets": 2,
                    "numoutlets": 2,
                    "outlettype": [ "bang", "" ],
                    "patching_rect": [ 1039.0244150161743, 693.9024555683136, 34.0, 22.0 ],
                    "text": "sel 1"
                }
            },
            {
                "box": {
                    "id": "obj-15",
                    "maxclass": "newobj",
                    "numinlets": 2,
                    "numoutlets": 2,
                    "outlettype": [ "bang", "" ],
                    "patching_rect": [ 995.1219749450684, 693.9024555683136, 34.0, 22.0 ],
                    "text": "sel 1"
                }
            },
            {
                "box": {
                    "id": "obj-13",
                    "maxclass": "newobj",
                    "numinlets": 2,
                    "numoutlets": 2,
                    "outlettype": [ "bang", "" ],
                    "patching_rect": [ 951.2195348739624, 693.9024555683136, 34.0, 22.0 ],
                    "text": "sel 1"
                }
            },
            {
                "box": {
                    "id": "obj-12",
                    "maxclass": "newobj",
                    "numinlets": 2,
                    "numoutlets": 2,
                    "outlettype": [ "bang", "" ],
                    "patching_rect": [ 907.3170948028564, 693.9024555683136, 34.0, 22.0 ],
                    "text": "sel 1"
                }
            },
            {
                "box": {
                    "id": "obj-7",
                    "maxclass": "number",
                    "numinlets": 1,
                    "numoutlets": 2,
                    "outlettype": [ "", "bang" ],
                    "parameter_enable": 0,
                    "patching_rect": [ 746.0, 227.33334094285965, 50.0, 22.0 ]
                }
            },
            {
                "box": {
                    "id": "obj-5",
                    "maxclass": "number",
                    "numinlets": 1,
                    "numoutlets": 2,
                    "outlettype": [ "", "bang" ],
                    "parameter_enable": 0,
                    "patching_rect": [ 807.3170924186707, 227.33334094285965, 50.0, 22.0 ]
                }
            },
            {
                "box": {
                    "id": "obj-4",
                    "maxclass": "comment",
                    "numinlets": 1,
                    "numoutlets": 0,
                    "patching_rect": [ 730.5, 104.0, 35.0, 20.0 ],
                    "presentation": 1,
                    "presentation_rect": [ 834.2439212799072, 106.09756350517273, 35.0, 20.0 ],
                    "text": "bpm"
                }
            },
            {
                "box": {
                    "id": "obj-1",
                    "maxclass": "number",
                    "numinlets": 1,
                    "numoutlets": 2,
                    "outlettype": [ "", "bang" ],
                    "parameter_enable": 0,
                    "patching_rect": [ 723.0, 129.0, 50.0, 22.0 ],
                    "presentation": 1,
                    "presentation_rect": [ 826.9268479347229, 131.70732021331787, 50.0, 22.0 ]
                }
            },
            {
                "box": {
                    "id": "obj-51",
                    "maxclass": "newobj",
                    "numinlets": 1,
                    "numoutlets": 2,
                    "outlettype": [ "int", "bang" ],
                    "patching_rect": [ 913.0, 252.00000715255737, 29.5, 22.0 ],
                    "text": "t i b"
                }
            },
            {
                "box": {
                    "id": "obj-50",
                    "maxclass": "newobj",
                    "numinlets": 2,
                    "numoutlets": 1,
                    "outlettype": [ "int" ],
                    "patching_rect": [ 913.0, 295.3333433866501, 29.5, 22.0 ],
                    "text": "i"
                }
            },
            {
                "box": {
                    "id": "obj-46",
                    "maxclass": "newobj",
                    "numinlets": 3,
                    "numoutlets": 1,
                    "outlettype": [ "" ],
                    "patching_rect": [ 908.0, 334.0, 60.0, 22.0 ],
                    "text": "pack i 0 0"
                }
            },
            {
                "box": {
                    "id": "obj-45",
                    "maxclass": "newobj",
                    "numinlets": 3,
                    "numoutlets": 1,
                    "outlettype": [ "" ],
                    "patching_rect": [ 835.0, 334.0, 60.0, 22.0 ],
                    "text": "pack i 0 1"
                }
            },
            {
                "box": {
                    "id": "obj-44",
                    "maxclass": "newobj",
                    "numinlets": 1,
                    "numoutlets": 10,
                    "outlettype": [ "int", "int", "int", "int", "int", "int", "int", "int", "int", "int" ],
                    "patching_rect": [ 1019.5122194290161, 615.8536732196808, 147.0, 22.0 ],
                    "text": "unpack 0 0 0 0 0 0 0 0 0 0"
                }
            },
            {
                "box": {
                    "id": "obj-43",
                    "maxclass": "toggle",
                    "numinlets": 1,
                    "numoutlets": 1,
                    "outlettype": [ "int" ],
                    "parameter_enable": 0,
                    "patching_rect": [ 702.0, 226.33334094285965, 24.0, 24.0 ],
                    "presentation": 1,
                    "presentation_rect": [ 1042.6829516887665, 170.73171138763428, 45.0, 45.0 ]
                }
            },
            {
                "box": {
                    "id": "obj-42",
                    "maxclass": "newobj",
                    "numinlets": 4,
                    "numoutlets": 1,
                    "outlettype": [ "int" ],
                    "patching_rect": [ 702.0, 273.33334094285965, 85.0, 22.0 ],
                    "text": "tempo 120 1 4"
                }
            },
            {
                "box": {
                    "id": "obj-41",
                    "maxclass": "message",
                    "numinlets": 2,
                    "numoutlets": 1,
                    "outlettype": [ "" ],
                    "patching_rect": [ 702.0, 334.0, 81.0, 22.0 ],
                    "text": "getcolumn $1"
                }
            },
            {
                "box": {
                    "columns": 16,
                    "id": "obj-37",
                    "maxclass": "matrixctrl",
                    "numinlets": 1,
                    "numoutlets": 2,
                    "outlettype": [ "list", "list" ],
                    "parameter_enable": 0,
                    "patching_rect": [ 769.0, 433.0, 258.0, 162.0 ],
                    "presentation": 1,
                    "presentation_rect": [ 451.21952295303345, 167.07317471504211, 564.6341598033905, 354.8780572414398 ],
                    "rows": 10
                }
            }
        ],
        "lines": [
            {
                "patchline": {
                    "destination": [ "obj-42", 1 ],
                    "source": [ "obj-1", 0 ]
                }
            },
            {
                "patchline": {
                    "destination": [ "obj-104", 1 ],
                    "order": 1,
                    "source": [ "obj-103", 0 ]
                }
            },
            {
                "patchline": {
                    "destination": [ "obj-122", 0 ],
                    "order": 0,
                    "source": [ "obj-103", 0 ]
                }
            },
            {
                "patchline": {
                    "destination": [ "obj-61", 0 ],
                    "source": [ "obj-104", 0 ]
                }
            },
            {
                "patchline": {
                    "destination": [ "obj-34", 0 ],
                    "source": [ "obj-105", 0 ]
                }
            },
            {
                "patchline": {
                    "destination": [ "obj-105", 0 ],
                    "source": [ "obj-109", 0 ]
                }
            },
            {
                "patchline": {
                    "destination": [ "obj-65", 0 ],
                    "source": [ "obj-11", 0 ]
                }
            },
            {
                "patchline": {
                    "destination": [ "obj-93", 0 ],
                    "source": [ "obj-110", 0 ]
                }
            },
            {
                "patchline": {
                    "destination": [ "obj-90", 0 ],
                    "source": [ "obj-111", 0 ]
                }
            },
            {
                "patchline": {
                    "destination": [ "obj-89", 0 ],
                    "source": [ "obj-112", 0 ]
                }
            },
            {
                "patchline": {
                    "destination": [ "obj-18", 0 ],
                    "source": [ "obj-12", 0 ]
                }
            },
            {
                "patchline": {
                    "destination": [ "obj-91", 0 ],
                    "source": [ "obj-127", 0 ]
                }
            },
            {
                "patchline": {
                    "destination": [ "obj-103", 0 ],
                    "source": [ "obj-129", 0 ]
                }
            },
            {
                "patchline": {
                    "destination": [ "obj-19", 0 ],
                    "source": [ "obj-13", 0 ]
                }
            },
            {
                "patchline": {
                    "destination": [ "obj-21", 0 ],
                    "source": [ "obj-14", 0 ]
                }
            },
            {
                "patchline": {
                    "destination": [ "obj-20", 0 ],
                    "source": [ "obj-15", 0 ]
                }
            },
            {
                "patchline": {
                    "destination": [ "obj-60", 0 ],
                    "source": [ "obj-153", 0 ]
                }
            },
            {
                "patchline": {
                    "destination": [ "obj-153", 2 ],
                    "order": 1,
                    "source": [ "obj-154", 0 ]
                }
            },
            {
                "patchline": {
                    "destination": [ "obj-162", 0 ],
                    "order": 0,
                    "source": [ "obj-154", 0 ]
                }
            },
            {
                "patchline": {
                    "destination": [ "obj-11", 0 ],
                    "order": 3,
                    "source": [ "obj-16", 0 ]
                }
            },
            {
                "patchline": {
                    "destination": [ "obj-129", 0 ],
                    "order": 0,
                    "source": [ "obj-16", 0 ]
                }
            },
            {
                "patchline": {
                    "destination": [ "obj-66", 0 ],
                    "order": 2,
                    "source": [ "obj-16", 0 ]
                }
            },
            {
                "patchline": {
                    "destination": [ "obj-67", 0 ],
                    "order": 4,
                    "source": [ "obj-16", 0 ]
                }
            },
            {
                "patchline": {
                    "destination": [ "obj-68", 0 ],
                    "order": 1,
                    "source": [ "obj-16", 0 ]
                }
            },
            {
                "patchline": {
                    "destination": [ "obj-69", 0 ],
                    "order": 5,
                    "source": [ "obj-16", 0 ]
                }
            },
            {
                "patchline": {
                    "destination": [ "obj-153", 1 ],
                    "source": [ "obj-165", 0 ]
                }
            },
            {
                "patchline": {
                    "destination": [ "obj-22", 0 ],
                    "source": [ "obj-17", 0 ]
                }
            },
            {
                "patchline": {
                    "destination": [ "obj-3", 0 ],
                    "source": [ "obj-2", 0 ]
                }
            },
            {
                "patchline": {
                    "destination": [ "obj-29", 0 ],
                    "source": [ "obj-24", 0 ]
                }
            },
            {
                "patchline": {
                    "destination": [ "obj-30", 0 ],
                    "source": [ "obj-25", 0 ]
                }
            },
            {
                "patchline": {
                    "destination": [ "obj-31", 0 ],
                    "source": [ "obj-26", 0 ]
                }
            },
            {
                "patchline": {
                    "destination": [ "obj-32", 0 ],
                    "source": [ "obj-27", 0 ]
                }
            },
            {
                "patchline": {
                    "destination": [ "obj-33", 0 ],
                    "source": [ "obj-28", 0 ]
                }
            },
            {
                "patchline": {
                    "destination": [ "obj-34", 0 ],
                    "source": [ "obj-29", 0 ]
                }
            },
            {
                "patchline": {
                    "destination": [ "obj-36", 0 ],
                    "source": [ "obj-3", 0 ]
                }
            },
            {
                "patchline": {
                    "destination": [ "obj-34", 0 ],
                    "source": [ "obj-30", 0 ]
                }
            },
            {
                "patchline": {
                    "destination": [ "obj-34", 0 ],
                    "source": [ "obj-31", 0 ]
                }
            },
            {
                "patchline": {
                    "destination": [ "obj-34", 0 ],
                    "source": [ "obj-32", 0 ]
                }
            },
            {
                "patchline": {
                    "destination": [ "obj-34", 0 ],
                    "source": [ "obj-33", 0 ]
                }
            },
            {
                "patchline": {
                    "destination": [ "obj-70", 0 ],
                    "source": [ "obj-34", 0 ]
                }
            },
            {
                "patchline": {
                    "destination": [ "obj-1", 0 ],
                    "order": 1,
                    "source": [ "obj-35", 0 ]
                }
            },
            {
                "patchline": {
                    "destination": [ "obj-105", 0 ],
                    "order": 2,
                    "source": [ "obj-35", 0 ]
                }
            },
            {
                "patchline": {
                    "destination": [ "obj-29", 0 ],
                    "order": 6,
                    "source": [ "obj-35", 0 ]
                }
            },
            {
                "patchline": {
                    "destination": [ "obj-30", 0 ],
                    "order": 7,
                    "source": [ "obj-35", 0 ]
                }
            },
            {
                "patchline": {
                    "destination": [ "obj-31", 0 ],
                    "order": 8,
                    "source": [ "obj-35", 0 ]
                }
            },
            {
                "patchline": {
                    "destination": [ "obj-32", 0 ],
                    "order": 9,
                    "source": [ "obj-35", 0 ]
                }
            },
            {
                "patchline": {
                    "destination": [ "obj-37", 0 ],
                    "midpoints": [ 1213.1585652828217, 420.0, 778.5, 420.0 ],
                    "order": 0,
                    "source": [ "obj-35", 0 ]
                }
            },
            {
                "patchline": {
                    "destination": [ "obj-89", 0 ],
                    "order": 5,
                    "source": [ "obj-35", 0 ]
                }
            },
            {
                "patchline": {
                    "destination": [ "obj-90", 0 ],
                    "order": 4,
                    "source": [ "obj-35", 0 ]
                }
            },
            {
                "patchline": {
                    "destination": [ "obj-93", 0 ],
                    "order": 3,
                    "source": [ "obj-35", 0 ]
                }
            },
            {
                "patchline": {
                    "destination": [ "obj-16", 0 ],
                    "order": 6,
                    "source": [ "obj-36", 0 ]
                }
            },
            {
                "patchline": {
                    "destination": [ "obj-162", 0 ],
                    "order": 4,
                    "source": [ "obj-36", 0 ]
                }
            },
            {
                "patchline": {
                    "destination": [ "obj-165", 0 ],
                    "order": 5,
                    "source": [ "obj-36", 0 ]
                }
            },
            {
                "patchline": {
                    "destination": [ "obj-48", 0 ],
                    "order": 7,
                    "source": [ "obj-36", 0 ]
                }
            },
            {
                "patchline": {
                    "destination": [ "obj-49", 0 ],
                    "order": 9,
                    "source": [ "obj-36", 0 ]
                }
            },
            {
                "patchline": {
                    "destination": [ "obj-92", 0 ],
                    "order": 8,
                    "source": [ "obj-36", 0 ]
                }
            },
            {
                "patchline": {
                    "destination": [ "obj-95", 0 ],
                    "order": 1,
                    "source": [ "obj-36", 0 ]
                }
            },
            {
                "patchline": {
                    "destination": [ "obj-96", 0 ],
                    "order": 0,
                    "source": [ "obj-36", 0 ]
                }
            },
            {
                "patchline": {
                    "destination": [ "obj-97", 0 ],
                    "order": 2,
                    "source": [ "obj-36", 0 ]
                }
            },
            {
                "patchline": {
                    "destination": [ "obj-98", 0 ],
                    "order": 3,
                    "source": [ "obj-36", 0 ]
                }
            },
            {
                "patchline": {
                    "destination": [ "obj-44", 0 ],
                    "source": [ "obj-37", 1 ]
                }
            },
            {
                "patchline": {
                    "destination": [ "obj-56", 0 ],
                    "source": [ "obj-38", 0 ]
                }
            },
            {
                "patchline": {
                    "destination": [ "obj-75", 0 ],
                    "source": [ "obj-39", 0 ]
                }
            },
            {
                "patchline": {
                    "destination": [ "obj-37", 0 ],
                    "source": [ "obj-41", 0 ]
                }
            },
            {
                "patchline": {
                    "destination": [ "obj-41", 0 ],
                    "order": 2,
                    "source": [ "obj-42", 0 ]
                }
            },
            {
                "patchline": {
                    "destination": [ "obj-45", 0 ],
                    "order": 1,
                    "source": [ "obj-42", 0 ]
                }
            },
            {
                "patchline": {
                    "destination": [ "obj-51", 0 ],
                    "order": 0,
                    "source": [ "obj-42", 0 ]
                }
            },
            {
                "patchline": {
                    "destination": [ "obj-42", 0 ],
                    "source": [ "obj-43", 0 ]
                }
            },
            {
                "patchline": {
                    "destination": [ "obj-12", 0 ],
                    "source": [ "obj-44", 1 ]
                }
            },
            {
                "patchline": {
                    "destination": [ "obj-13", 0 ],
                    "midpoints": [ 1057.4566638734605, 659.5642048120499, 960.7195348739624, 659.5642048120499 ],
                    "source": [ "obj-44", 2 ]
                }
            },
            {
                "patchline": {
                    "destination": [ "obj-14", 0 ],
                    "midpoints": [ 1085.901108317905, 651.1431521177292, 1048.5244150161743, 651.1431521177292 ],
                    "source": [ "obj-44", 4 ]
                }
            },
            {
                "patchline": {
                    "destination": [ "obj-15", 0 ],
                    "midpoints": [ 1071.6788860956829, 655.9063100814819, 1004.6219749450684, 655.9063100814819 ],
                    "source": [ "obj-44", 3 ]
                }
            },
            {
                "patchline": {
                    "destination": [ "obj-17", 0 ],
                    "midpoints": [ 1100.1233305401272, 645.8799942731857, 1094.865879535675, 645.8799942731857 ],
                    "source": [ "obj-44", 5 ]
                }
            },
            {
                "patchline": {
                    "destination": [ "obj-85", 0 ],
                    "source": [ "obj-44", 9 ]
                }
            },
            {
                "patchline": {
                    "destination": [ "obj-86", 0 ],
                    "source": [ "obj-44", 8 ]
                }
            },
            {
                "patchline": {
                    "destination": [ "obj-87", 0 ],
                    "source": [ "obj-44", 7 ]
                }
            },
            {
                "patchline": {
                    "destination": [ "obj-88", 0 ],
                    "source": [ "obj-44", 6 ]
                }
            },
            {
                "patchline": {
                    "destination": [ "obj-37", 0 ],
                    "source": [ "obj-45", 0 ]
                }
            },
            {
                "patchline": {
                    "destination": [ "obj-37", 0 ],
                    "source": [ "obj-46", 0 ]
                }
            },
            {
                "patchline": {
                    "destination": [ "obj-52", 2 ],
                    "order": 0,
                    "source": [ "obj-47", 0 ]
                }
            },
            {
                "patchline": {
                    "destination": [ "obj-53", 2 ],
                    "order": 1,
                    "source": [ "obj-47", 0 ]
                }
            },
            {
                "patchline": {
                    "destination": [ "obj-52", 1 ],
                    "order": 0,
                    "source": [ "obj-48", 0 ]
                }
            },
            {
                "patchline": {
                    "destination": [ "obj-53", 1 ],
                    "order": 1,
                    "source": [ "obj-48", 0 ]
                }
            },
            {
                "patchline": {
                    "destination": [ "obj-38", 0 ],
                    "source": [ "obj-49", 0 ]
                }
            },
            {
                "patchline": {
                    "destination": [ "obj-42", 3 ],
                    "source": [ "obj-5", 0 ]
                }
            },
            {
                "patchline": {
                    "destination": [ "obj-46", 0 ],
                    "source": [ "obj-50", 0 ]
                }
            },
            {
                "patchline": {
                    "destination": [ "obj-50", 0 ],
                    "source": [ "obj-51", 1 ]
                }
            },
            {
                "patchline": {
                    "destination": [ "obj-50", 1 ],
                    "source": [ "obj-51", 0 ]
                }
            },
            {
                "patchline": {
                    "destination": [ "obj-38", 2 ],
                    "source": [ "obj-52", 0 ]
                }
            },
            {
                "patchline": {
                    "destination": [ "obj-38", 1 ],
                    "source": [ "obj-53", 0 ]
                }
            },
            {
                "patchline": {
                    "destination": [ "obj-103", 0 ],
                    "source": [ "obj-55", 0 ]
                }
            },
            {
                "patchline": {
                    "destination": [ "obj-62", 0 ],
                    "order": 0,
                    "source": [ "obj-56", 0 ]
                }
            },
            {
                "patchline": {
                    "destination": [ "obj-63", 0 ],
                    "order": 1,
                    "source": [ "obj-56", 0 ]
                }
            },
            {
                "patchline": {
                    "destination": [ "obj-64", 0 ],
                    "order": 2,
                    "source": [ "obj-56", 0 ]
                }
            },
            {
                "patchline": {
                    "destination": [ "obj-65", 0 ],
                    "order": 3,
                    "source": [ "obj-56", 0 ]
                }
            },
            {
                "patchline": {
                    "destination": [ "obj-57", 1 ],
                    "source": [ "obj-58", 1 ]
                }
            },
            {
                "patchline": {
                    "destination": [ "obj-57", 0 ],
                    "source": [ "obj-58", 0 ]
                }
            },
            {
                "patchline": {
                    "destination": [ "obj-10", 0 ],
                    "order": 0,
                    "source": [ "obj-59", 0 ]
                }
            },
            {
                "patchline": {
                    "destination": [ "obj-123", 0 ],
                    "order": 1,
                    "source": [ "obj-59", 0 ]
                }
            },
            {
                "patchline": {
                    "destination": [ "obj-40", 0 ],
                    "order": 2,
                    "source": [ "obj-59", 0 ]
                }
            },
            {
                "patchline": {
                    "destination": [ "obj-58", 1 ],
                    "source": [ "obj-59", 1 ]
                }
            },
            {
                "patchline": {
                    "destination": [ "obj-58", 0 ],
                    "order": 3,
                    "source": [ "obj-59", 0 ]
                }
            },
            {
                "patchline": {
                    "destination": [ "obj-59", 1 ],
                    "source": [ "obj-60", 1 ]
                }
            },
            {
                "patchline": {
                    "destination": [ "obj-59", 0 ],
                    "source": [ "obj-60", 0 ]
                }
            },
            {
                "patchline": {
                    "destination": [ "obj-153", 0 ],
                    "source": [ "obj-61", 0 ]
                }
            },
            {
                "patchline": {
                    "destination": [ "obj-91", 4 ],
                    "source": [ "obj-62", 0 ]
                }
            },
            {
                "patchline": {
                    "destination": [ "obj-91", 3 ],
                    "source": [ "obj-63", 0 ]
                }
            },
            {
                "patchline": {
                    "destination": [ "obj-91", 2 ],
                    "source": [ "obj-64", 0 ]
                }
            },
            {
                "patchline": {
                    "destination": [ "obj-91", 1 ],
                    "source": [ "obj-65", 0 ]
                }
            },
            {
                "patchline": {
                    "destination": [ "obj-64", 0 ],
                    "source": [ "obj-66", 0 ]
                }
            },
            {
                "patchline": {
                    "destination": [ "obj-63", 0 ],
                    "source": [ "obj-67", 0 ]
                }
            },
            {
                "patchline": {
                    "destination": [ "obj-62", 0 ],
                    "source": [ "obj-68", 0 ]
                }
            },
            {
                "patchline": {
                    "destination": [ "obj-56", 0 ],
                    "source": [ "obj-69", 0 ]
                }
            },
            {
                "patchline": {
                    "destination": [ "obj-42", 2 ],
                    "source": [ "obj-7", 0 ]
                }
            },
            {
                "patchline": {
                    "destination": [ "obj-39", 1 ],
                    "order": 1,
                    "source": [ "obj-70", 1 ]
                }
            },
            {
                "patchline": {
                    "destination": [ "obj-39", 0 ],
                    "source": [ "obj-70", 0 ]
                }
            },
            {
                "patchline": {
                    "destination": [ "obj-55", 0 ],
                    "order": 0,
                    "source": [ "obj-70", 1 ]
                }
            },
            {
                "patchline": {
                    "destination": [ "obj-47", 0 ],
                    "source": [ "obj-75", 0 ]
                }
            },
            {
                "patchline": {
                    "destination": [ "obj-80", 0 ],
                    "source": [ "obj-85", 0 ]
                }
            },
            {
                "patchline": {
                    "destination": [ "obj-81", 0 ],
                    "source": [ "obj-86", 0 ]
                }
            },
            {
                "patchline": {
                    "destination": [ "obj-82", 0 ],
                    "source": [ "obj-87", 0 ]
                }
            },
            {
                "patchline": {
                    "destination": [ "obj-83", 0 ],
                    "source": [ "obj-88", 0 ]
                }
            },
            {
                "patchline": {
                    "destination": [ "obj-34", 0 ],
                    "source": [ "obj-89", 0 ]
                }
            },
            {
                "patchline": {
                    "destination": [ "obj-34", 0 ],
                    "source": [ "obj-90", 0 ]
                }
            },
            {
                "patchline": {
                    "destination": [ "obj-104", 0 ],
                    "source": [ "obj-91", 0 ]
                }
            },
            {
                "patchline": {
                    "destination": [ "obj-127", 0 ],
                    "source": [ "obj-92", 0 ]
                }
            },
            {
                "patchline": {
                    "destination": [ "obj-34", 0 ],
                    "source": [ "obj-93", 0 ]
                }
            },
            {
                "patchline": {
                    "destination": [ "obj-103", 4 ],
                    "source": [ "obj-94", 3 ]
                }
            },
            {
                "patchline": {
                    "destination": [ "obj-103", 3 ],
                    "source": [ "obj-94", 2 ]
                }
            },
            {
                "patchline": {
                    "destination": [ "obj-103", 2 ],
                    "source": [ "obj-94", 1 ]
                }
            },
            {
                "patchline": {
                    "destination": [ "obj-103", 1 ],
                    "source": [ "obj-94", 0 ]
                }
            },
            {
                "patchline": {
                    "destination": [ "obj-94", 2 ],
                    "source": [ "obj-95", 0 ]
                }
            },
            {
                "patchline": {
                    "destination": [ "obj-94", 3 ],
                    "source": [ "obj-96", 0 ]
                }
            },
            {
                "patchline": {
                    "destination": [ "obj-94", 1 ],
                    "source": [ "obj-97", 0 ]
                }
            },
            {
                "patchline": {
                    "destination": [ "obj-94", 0 ],
                    "source": [ "obj-98", 0 ]
                }
            }
        ],
        "parameters": {
            "obj-59": [ "live.gain~[1]", "live.gain~[1]", 0 ],
            "obj-95": [ "flonum[3]", "flonum", 0 ],
            "obj-96": [ "number[10]", "number[2]", 0 ],
            "obj-97": [ "number[11]", "number[2]", 0 ],
            "obj-98": [ "number[12]", "number[2]", 0 ],
            "parameterbanks": {
                "0": {
                    "index": 0,
                    "name": "",
                    "parameters": [ "-", "-", "-", "-", "-", "-", "-", "-" ],
                    "buttons": [ "-", "-", "-", "-", "-", "-", "-", "-" ]
                }
            },
            "inherited_shortname": 1
        },
        "autosave": 0
    }
}