{
    "patcher": {
        "fileversion": 1,
        "appversion": {
            "major": 9,
            "minor": 1,
            "revision": 2,
            "architecture": "x64",
            "modernui": 1
        },
        "classnamespace": "box",
        "rect": [ 34.0, 77.0, 1533.0, 908.0 ],
        "openinpresentation": 1,
        "boxes": [
            {
                "box": {
                    "id": "obj-103",
                    "maxclass": "comment",
                    "numinlets": 1,
                    "numoutlets": 0,
                    "patching_rect": [ 611.0, 91.0, 150.0, 20.0 ],
                    "presentation": 1,
                    "presentation_rect": [ 602.0, 79.0, 150.0, 20.0 ],
                    "text": "audio on/off"
                }
            },
            {
                "box": {
                    "id": "obj-101",
                    "linecount": 7,
                    "maxclass": "comment",
                    "numinlets": 1,
                    "numoutlets": 0,
                    "patching_rect": [ 279.0, 455.0, 150.0, 103.0 ],
                    "presentation": 1,
                    "presentation_linecount": 4,
                    "presentation_rect": [ 785.0, 55.0, 308.0, 62.0 ],
                    "text": "pan the mouse on the window to look around.\n\nthe terrain/waves are generated by the music\nthe snowman rides on top of the waves"
                }
            },
            {
                "box": {
                    "id": "obj-99",
                    "maxclass": "comment",
                    "numinlets": 1,
                    "numoutlets": 0,
                    "patching_rect": [ 409.0, 104.0, 150.0, 20.0 ],
                    "presentation": 1,
                    "presentation_rect": [ 303.0, 64.0, 150.0, 20.0 ],
                    "text": "select song"
                }
            },
            {
                "box": {
                    "fontname": "Arial",
                    "fontsize": 13.0,
                    "id": "obj-96",
                    "maxclass": "comment",
                    "numinlets": 1,
                    "numoutlets": 0,
                    "patching_rect": [ 84.5, 17.0, 94.0, 21.0 ],
                    "presentation": 1,
                    "presentation_rect": [ 147.0, 68.0, 94.0, 21.0 ],
                    "style": "helpfile_label",
                    "text": "start/stop all"
                }
            },
            {
                "box": {
                    "id": "obj-94",
                    "maxclass": "message",
                    "numinlets": 2,
                    "numoutlets": 1,
                    "outlettype": [ "" ],
                    "patching_rect": [ 531.0, 1076.0, 189.0, 22.0 ],
                    "presentation": 1,
                    "presentation_linecount": 2,
                    "presentation_rect": [ 302.0, 124.0, 152.0, 36.0 ],
                    "text": "replace snowman-f5ve-remix.mp3"
                }
            },
            {
                "box": {
                    "id": "obj-56",
                    "maxclass": "message",
                    "numinlets": 2,
                    "numoutlets": 1,
                    "outlettype": [ "" ],
                    "patching_rect": [ 441.0, 1079.0, 48.0, 22.0 ],
                    "presentation": 1,
                    "presentation_rect": [ 302.0, 96.0, 48.0, 22.0 ],
                    "text": "replace"
                }
            },
            {
                "box": {
                    "id": "obj-91",
                    "maxclass": "newobj",
                    "numinlets": 1,
                    "numoutlets": 1,
                    "outlettype": [ "bang" ],
                    "patching_rect": [ 163.0, 935.0, 58.0, 22.0 ],
                    "text": "loadbang"
                }
            },
            {
                "box": {
                    "id": "obj-90",
                    "maxclass": "newobj",
                    "numinlets": 0,
                    "numoutlets": 1,
                    "outlettype": [ "" ],
                    "patching_rect": [ 163.0, 247.37350296974182, 47.0, 22.0 ],
                    "text": "r music"
                }
            },
            {
                "box": {
                    "id": "obj-88",
                    "maxclass": "newobj",
                    "numinlets": 1,
                    "numoutlets": 0,
                    "patching_rect": [ 283.0, 1209.0, 49.0, 22.0 ],
                    "text": "s music"
                }
            },
            {
                "box": {
                    "id": "obj-85",
                    "maxclass": "toggle",
                    "numinlets": 1,
                    "numoutlets": 1,
                    "outlettype": [ "int" ],
                    "parameter_enable": 0,
                    "patching_rect": [ 295.5, 995.0, 24.0, 24.0 ],
                    "presentation": 1,
                    "presentation_rect": [ 96.0, 142.0, 24.0, 24.0 ]
                }
            },
            {
                "box": {
                    "fontname": "Arial",
                    "fontsize": 13.0,
                    "id": "obj-80",
                    "maxclass": "comment",
                    "numinlets": 1,
                    "numoutlets": 0,
                    "patching_rect": [ 331.5, 1004.0, 94.0, 21.0 ],
                    "presentation": 1,
                    "presentation_rect": [ 125.0, 143.5, 94.0, 21.0 ],
                    "style": "helpfile_label",
                    "text": "play/pause"
                }
            },
            {
                "box": {
                    "fontname": "Arial",
                    "fontsize": 13.0,
                    "id": "obj-14",
                    "maxclass": "newobj",
                    "numinlets": 1,
                    "numoutlets": 1,
                    "outlettype": [ "signal" ],
                    "patching_rect": [ 290.0, 1071.0, 35.0, 23.0 ],
                    "text": "sig~"
                }
            },
            {
                "box": {
                    "id": "obj-76",
                    "maxclass": "newobj",
                    "numinlets": 3,
                    "numoutlets": 2,
                    "outlettype": [ "signal", "signal" ],
                    "patching_rect": [ 217.0, 1164.0, 122.0, 22.0 ],
                    "text": "groove~ audiogroove"
                }
            },
            {
                "box": {
                    "fontname": "Arial",
                    "fontsize": 13.0,
                    "id": "obj-74",
                    "maxclass": "message",
                    "numinlets": 2,
                    "numoutlets": 1,
                    "outlettype": [ "" ],
                    "patching_rect": [ 162.0, 1031.0, 32.5, 23.0 ],
                    "text": "0"
                }
            },
            {
                "box": {
                    "fontname": "Arial",
                    "fontsize": 13.0,
                    "id": "obj-73",
                    "maxclass": "message",
                    "numinlets": 2,
                    "numoutlets": 1,
                    "outlettype": [ "" ],
                    "patching_rect": [ 205.0, 1031.0, 46.0, 23.0 ],
                    "text": "loop 1"
                }
            },
            {
                "box": {
                    "id": "obj-67",
                    "maxclass": "newobj",
                    "numinlets": 1,
                    "numoutlets": 2,
                    "outlettype": [ "float", "bang" ],
                    "patching_rect": [ 466.0, 1209.0, 115.0, 22.0 ],
                    "text": "buffer~ audiogroove"
                }
            },
            {
                "box": {
                    "format": 6,
                    "id": "obj-47",
                    "maxclass": "flonum",
                    "numinlets": 1,
                    "numoutlets": 2,
                    "outlettype": [ "", "bang" ],
                    "parameter_enable": 0,
                    "patching_rect": [ 709.7982227802277, 663.5, 73.0, 22.0 ]
                }
            },
            {
                "box": {
                    "id": "obj-44",
                    "maxclass": "newobj",
                    "numinlets": 2,
                    "numoutlets": 2,
                    "outlettype": [ "int", "int" ],
                    "patching_rect": [ 709.7982227802277, 635.5, 71.0, 22.0 ],
                    "text": "maximum 0"
                }
            },
            {
                "box": {
                    "id": "obj-29",
                    "linecount": 2,
                    "maxclass": "comment",
                    "numinlets": 1,
                    "numoutlets": 0,
                    "patching_rect": [ 1321.5385875701904, 140.1538600921631, 150.0, 34.0 ],
                    "text": "sets the left box of the kernel to be on"
                }
            },
            {
                "box": {
                    "id": "obj-25",
                    "maxclass": "comment",
                    "numinlets": 1,
                    "numoutlets": 0,
                    "patching_rect": [ 1480.0, 311.0, 150.0, 20.0 ],
                    "text": "jit.pwindow"
                }
            },
            {
                "box": {
                    "id": "obj-19",
                    "linecount": 3,
                    "maxclass": "comment",
                    "numinlets": 1,
                    "numoutlets": 0,
                    "patching_rect": [ 1267.0, 406.0, 153.0, 48.0 ],
                    "text": "scrolls the matrix by displacing the pixels to the left"
                }
            },
            {
                "box": {
                    "id": "obj-15",
                    "maxclass": "comment",
                    "numinlets": 1,
                    "numoutlets": 0,
                    "patching_rect": [ 1267.0, 455.0, 150.0, 20.0 ],
                    "text": "smoothes the terrain"
                }
            },
            {
                "box": {
                    "id": "obj-12",
                    "linecount": 3,
                    "maxclass": "comment",
                    "numinlets": 1,
                    "numoutlets": 0,
                    "patching_rect": [ 840.3225835263729, 269.3735029697418, 152.0, 48.0 ],
                    "text": "get the value of the center cell (the one the snowman is on top of)"
                }
            },
            {
                "box": {
                    "id": "obj-6",
                    "maxclass": "newobj",
                    "numinlets": 1,
                    "numoutlets": 2,
                    "outlettype": [ "jit_gl_texture", "" ],
                    "patching_rect": [ 1012.0, 635.3313782811165, 341.0, 22.0 ],
                    "text": "jit.gl.texture @name SnowmanTexture @file SnowmanTex.png"
                }
            },
            {
                "box": {
                    "format": 6,
                    "id": "obj-89",
                    "maxclass": "flonum",
                    "numinlets": 1,
                    "numoutlets": 2,
                    "outlettype": [ "", "bang" ],
                    "parameter_enable": 0,
                    "patching_rect": [ 931.0482227802277, 567.0, 50.0, 22.0 ]
                }
            },
            {
                "box": {
                    "format": 6,
                    "id": "obj-87",
                    "maxclass": "flonum",
                    "numinlets": 1,
                    "numoutlets": 2,
                    "outlettype": [ "", "bang" ],
                    "parameter_enable": 0,
                    "patching_rect": [ 877.0482227802277, 567.0, 50.0, 22.0 ]
                }
            },
            {
                "box": {
                    "format": 6,
                    "id": "obj-79",
                    "maxclass": "flonum",
                    "numinlets": 1,
                    "numoutlets": 2,
                    "outlettype": [ "", "bang" ],
                    "parameter_enable": 0,
                    "patching_rect": [ 816.0482227802277, 567.0, 50.0, 22.0 ]
                }
            },
            {
                "box": {
                    "id": "obj-78",
                    "maxclass": "newobj",
                    "numinlets": 1,
                    "numoutlets": 3,
                    "outlettype": [ "float", "float", "float" ],
                    "patching_rect": [ 836.0482227802277, 526.0, 67.0, 22.0 ],
                    "text": "unpack f f f"
                }
            },
            {
                "box": {
                    "id": "obj-59",
                    "maxclass": "newobj",
                    "numinlets": 2,
                    "numoutlets": 2,
                    "outlettype": [ "", "" ],
                    "patching_rect": [ 842.0482227802277, 486.0, 55.0, 22.0 ],
                    "text": "zl.slice 4"
                }
            },
            {
                "box": {
                    "id": "obj-57",
                    "linecount": 4,
                    "maxclass": "message",
                    "numinlets": 2,
                    "numoutlets": 1,
                    "outlettype": [ "" ],
                    "patching_rect": [ 703.2982227802277, 517.0, 86.0, 64.0 ],
                    "text": "cell 250 128 val -0.000554 -0.000554 -0.000554"
                }
            },
            {
                "box": {
                    "format": 6,
                    "id": "obj-55",
                    "maxclass": "flonum",
                    "numinlets": 1,
                    "numoutlets": 2,
                    "outlettype": [ "", "bang" ],
                    "parameter_enable": 0,
                    "patching_rect": [ 572.0, 595.266287446022, 63.0, 22.0 ]
                }
            },
            {
                "box": {
                    "id": "obj-54",
                    "maxclass": "newobj",
                    "numinlets": 2,
                    "numoutlets": 2,
                    "outlettype": [ "", "" ],
                    "patching_rect": [ 569.8224998116493, 557.3964639902115, 47.0, 22.0 ],
                    "text": "zl.nth 6"
                }
            },
            {
                "box": {
                    "id": "obj-33",
                    "maxclass": "jit.pwindow",
                    "numinlets": 1,
                    "numoutlets": 2,
                    "outlettype": [ "jit_matrix", "" ],
                    "patching_rect": [ 1282.0, 247.37350296974182, 178.31325960159302, 125.30120944976807 ],
                    "sync": 1
                }
            },
            {
                "box": {
                    "id": "obj-32",
                    "maxclass": "message",
                    "numinlets": 2,
                    "numoutlets": 1,
                    "outlettype": [ "" ],
                    "patching_rect": [ 791.5482227802277, 282.3735029697418, 29.5, 22.0 ],
                    "text": "128"
                }
            },
            {
                "box": {
                    "id": "obj-31",
                    "maxclass": "message",
                    "numinlets": 2,
                    "numoutlets": 1,
                    "outlettype": [ "" ],
                    "patching_rect": [ 731.5482227802277, 282.3735029697418, 29.5, 22.0 ],
                    "text": "250"
                }
            },
            {
                "box": {
                    "id": "obj-28",
                    "maxclass": "newobj",
                    "numinlets": 1,
                    "numoutlets": 1,
                    "outlettype": [ "bang" ],
                    "patching_rect": [ 731.5482227802277, 247.37350296974182, 58.0, 22.0 ],
                    "text": "loadbang"
                }
            },
            {
                "box": {
                    "id": "obj-27",
                    "maxclass": "newobj",
                    "numinlets": 2,
                    "numoutlets": 1,
                    "outlettype": [ "float" ],
                    "patching_rect": [ 572.1893637776375, 626.6272349953651, 42.0, 22.0 ],
                    "text": "+ 0.05"
                }
            },
            {
                "box": {
                    "id": "obj-13",
                    "maxclass": "ezdac~",
                    "numinlets": 2,
                    "numoutlets": 0,
                    "patching_rect": [ 205.5, 1443.0, 45.0, 45.0 ],
                    "presentation": 1,
                    "presentation_rect": [ 549.0, 66.5, 45.0, 45.0 ]
                }
            },
            {
                "box": {
                    "id": "obj-2",
                    "lastchannelcount": 0,
                    "maxclass": "live.gain~",
                    "numinlets": 2,
                    "numoutlets": 5,
                    "outlettype": [ "signal", "signal", "", "float", "list" ],
                    "parameter_enable": 1,
                    "patching_rect": [ 205.5, 1260.0, 48.0, 136.0 ],
                    "presentation": 1,
                    "presentation_rect": [ 489.0, 57.0, 48.0, 136.0 ],
                    "saved_attribute_attributes": {
                        "valueof": {
                            "parameter_longname": "live.gain~",
                            "parameter_mmax": 6.0,
                            "parameter_mmin": -70.0,
                            "parameter_modmode": 3,
                            "parameter_shortname": "live.gain~",
                            "parameter_type": 0,
                            "parameter_unitstyle": 4
                        }
                    },
                    "varname": "live.gain~"
                }
            },
            {
                "box": {
                    "id": "obj-61",
                    "maxclass": "newobj",
                    "numinlets": 4,
                    "numoutlets": 1,
                    "outlettype": [ "" ],
                    "patching_rect": [ 552.6627360582352, 675.0, 113.0, 22.0 ],
                    "text": "pak position 0. 0. 0."
                }
            },
            {
                "box": {
                    "id": "obj-17",
                    "maxclass": "newobj",
                    "numinlets": 1,
                    "numoutlets": 2,
                    "outlettype": [ "", "" ],
                    "patching_rect": [ 200.0, 63.0, 69.0, 22.0 ],
                    "text": "jit.gl.handle"
                }
            },
            {
                "box": {
                    "id": "obj-11",
                    "maxclass": "number",
                    "numinlets": 1,
                    "numoutlets": 2,
                    "outlettype": [ "", "bang" ],
                    "parameter_enable": 0,
                    "patching_rect": [ 791.5482227802277, 324.0, 50.0, 22.0 ]
                }
            },
            {
                "box": {
                    "id": "obj-9",
                    "maxclass": "number",
                    "numinlets": 1,
                    "numoutlets": 2,
                    "outlettype": [ "", "bang" ],
                    "parameter_enable": 0,
                    "patching_rect": [ 731.5482227802277, 324.0, 50.0, 22.0 ]
                }
            },
            {
                "box": {
                    "id": "obj-7",
                    "maxclass": "newobj",
                    "numinlets": 3,
                    "numoutlets": 1,
                    "outlettype": [ "" ],
                    "patching_rect": [ 694.0, 368.0, 86.0, 22.0 ],
                    "text": "pak getcell 0 0"
                }
            },
            {
                "box": {
                    "id": "obj-5",
                    "maxclass": "newobj",
                    "numinlets": 1,
                    "numoutlets": 2,
                    "outlettype": [ "", "" ],
                    "patching_rect": [ 552.6627360582352, 720.7100776433945, 851.0, 22.0 ],
                    "text": "jit.gl.model SnowmanWorld @file snowman.fbx @rotatexyz 0 90 0 @scale 0.05 0.05 0.05 @texture SnowmanTexture @lighting_enable 1 @smooth_shading 1"
                }
            },
            {
                "box": {
                    "id": "obj-71",
                    "maxclass": "message",
                    "numinlets": 2,
                    "numoutlets": 1,
                    "outlettype": [ "" ],
                    "patching_rect": [ 1018.903657913208, 146.1538600921631, 128.0, 22.0 ],
                    "text": "setcell 0 1 val 0., bang"
                }
            },
            {
                "box": {
                    "id": "obj-72",
                    "maxclass": "message",
                    "numinlets": 2,
                    "numoutlets": 1,
                    "outlettype": [ "" ],
                    "patching_rect": [ 1182.0, 138.34939527511597, 128.0, 22.0 ],
                    "text": "setcell 0 1 val 1., bang"
                }
            },
            {
                "box": {
                    "id": "obj-70",
                    "maxclass": "newobj",
                    "numinlets": 1,
                    "numoutlets": 2,
                    "outlettype": [ "jit_matrix", "" ],
                    "patching_rect": [ 1002.0, 453.0, 201.0, 22.0 ],
                    "text": "jit.slide @slide_down 5 @slide_up 5"
                }
            },
            {
                "box": {
                    "id": "obj-22",
                    "maxclass": "message",
                    "numinlets": 2,
                    "numoutlets": 1,
                    "outlettype": [ "" ],
                    "patching_rect": [ 1018.903657913208, 100.0, 128.0, 22.0 ],
                    "text": "setcell 0 2 val 0., bang"
                }
            },
            {
                "box": {
                    "id": "obj-21",
                    "maxclass": "message",
                    "numinlets": 2,
                    "numoutlets": 1,
                    "outlettype": [ "" ],
                    "patching_rect": [ 1018.903657913208, 71.0, 128.0, 22.0 ],
                    "text": "setcell 0 2 val 1., bang"
                }
            },
            {
                "box": {
                    "id": "obj-1",
                    "maxclass": "newobj",
                    "numinlets": 1,
                    "numoutlets": 1,
                    "outlettype": [ "bang" ],
                    "patching_rect": [ 1182.0, 89.34939527511597, 58.0, 22.0 ],
                    "text": "loadbang"
                }
            },
            {
                "box": {
                    "id": "obj-40",
                    "maxclass": "newobj",
                    "numinlets": 1,
                    "numoutlets": 2,
                    "outlettype": [ "jit_matrix", "" ],
                    "patching_rect": [ 1002.0, 488.0, 79.0, 22.0 ],
                    "text": "jit.matrix land"
                }
            },
            {
                "box": {
                    "id": "obj-36",
                    "maxclass": "newobj",
                    "numinlets": 1,
                    "numoutlets": 2,
                    "outlettype": [ "jit_matrix", "" ],
                    "patching_rect": [ 1182.0, 205.34939527511597, 123.0, 22.0 ],
                    "text": "jit.matrix 1 float32 3 3"
                }
            },
            {
                "box": {
                    "id": "obj-35",
                    "maxclass": "newobj",
                    "numinlets": 2,
                    "numoutlets": 2,
                    "outlettype": [ "jit_matrix", "" ],
                    "patching_rect": [ 1002.0, 419.0, 198.64516705274582, 22.0 ],
                    "text": "jit.convolve"
                }
            },
            {
                "box": {
                    "id": "obj-34",
                    "maxclass": "newobj",
                    "numinlets": 1,
                    "numoutlets": 2,
                    "outlettype": [ "jit_matrix", "" ],
                    "patching_rect": [ 1002.0, 382.0, 79.0, 22.0 ],
                    "text": "jit.matrix land"
                }
            },
            {
                "box": {
                    "id": "obj-51",
                    "maxclass": "newobj",
                    "numinlets": 8,
                    "numoutlets": 2,
                    "outlettype": [ "", "" ],
                    "patching_rect": [ 361.0, 764.0, 520.0, 22.0 ],
                    "text": "jit.gl.material SnowmanWorld @specular_model ward @fog linear @fog_params 0 0 0 1 1 10 60"
                }
            },
            {
                "box": {
                    "id": "obj-20",
                    "maxclass": "newobj",
                    "numinlets": 9,
                    "numoutlets": 2,
                    "outlettype": [ "", "" ],
                    "patching_rect": [ 312.0, 818.0, 1092.0, 22.0 ],
                    "text": "jit.gl.mesh SnowmanWorld @lighting_enable 1 @color 1 1 1 1 @auto_normals 1 @fog 1 @fog_params 0 0 0 1 1 10 60 @scale 20 20 20 @position -10 0 -10 @rotatexyz 90 0 0 @texture SnowmanTexture"
                }
            },
            {
                "box": {
                    "id": "obj-52",
                    "maxclass": "newobj",
                    "numinlets": 1,
                    "numoutlets": 3,
                    "outlettype": [ "jit_matrix", "jit_matrix", "" ],
                    "patcher": {
                        "fileversion": 1,
                        "appversion": {
                            "major": 9,
                            "minor": 1,
                            "revision": 2,
                            "architecture": "x64",
                            "modernui": 1
                        },
                        "classnamespace": "jit.gen",
                        "rect": [ 173.0, 199.0, 497.0, 400.0 ],
                        "boxes": [
                            {
                                "box": {
                                    "id": "obj-2",
                                    "maxclass": "newobj",
                                    "numinlets": 1,
                                    "numoutlets": 1,
                                    "outlettype": [ "" ],
                                    "patching_rect": [ 263.6184196472168, 183.0, 60.0, 22.0 ],
                                    "text": "clip 0. 0.5"
                                }
                            },
                            {
                                "box": {
                                    "id": "obj-14",
                                    "maxclass": "newobj",
                                    "numinlets": 2,
                                    "numoutlets": 1,
                                    "outlettype": [ "" ],
                                    "patching_rect": [ 116.25, 193.22806787490845, 29.5, 22.0 ],
                                    "text": "-"
                                }
                            },
                            {
                                "box": {
                                    "id": "obj-13",
                                    "maxclass": "newobj",
                                    "numinlets": 1,
                                    "numoutlets": 1,
                                    "outlettype": [ "" ],
                                    "patching_rect": [ 116.25, 149.5191879272461, 41.0, 22.0 ],
                                    "text": "swiz z"
                                }
                            },
                            {
                                "box": {
                                    "id": "obj-12",
                                    "maxclass": "newobj",
                                    "numinlets": 1,
                                    "numoutlets": 2,
                                    "outlettype": [ "", "" ],
                                    "patching_rect": [ 18.59375, 29.192981719970703, 45.0, 22.0 ],
                                    "text": "plane"
                                }
                            },
                            {
                                "box": {
                                    "id": "obj-11",
                                    "maxclass": "newobj",
                                    "numinlets": 1,
                                    "numoutlets": 1,
                                    "outlettype": [ "" ],
                                    "patching_rect": [ 351.1209196472168, 149.5191879272461, 23.0, 22.0 ],
                                    "text": "* 5"
                                }
                            },
                            {
                                "box": {
                                    "id": "obj-10",
                                    "maxclass": "newobj",
                                    "numinlets": 1,
                                    "numoutlets": 0,
                                    "patching_rect": [ 351.1209196472168, 303.9254379272461, 35.0, 22.0 ],
                                    "text": "out 2"
                                }
                            },
                            {
                                "box": {
                                    "id": "obj-9",
                                    "maxclass": "newobj",
                                    "numinlets": 1,
                                    "numoutlets": 1,
                                    "outlettype": [ "" ],
                                    "patching_rect": [ 263.6184196472168, 149.5191879272461, 40.0, 22.0 ],
                                    "text": "* 0.05"
                                }
                            },
                            {
                                "box": {
                                    "id": "obj-8",
                                    "maxclass": "newobj",
                                    "numinlets": 3,
                                    "numoutlets": 1,
                                    "outlettype": [ "" ],
                                    "patching_rect": [ 18.59375, 238.5816879272461, 116.65625, 22.0 ],
                                    "text": "vec 0 0 0"
                                }
                            },
                            {
                                "box": {
                                    "id": "obj-7",
                                    "maxclass": "newobj",
                                    "numinlets": 1,
                                    "numoutlets": 1,
                                    "outlettype": [ "" ],
                                    "patching_rect": [ 65.5, 149.5191879272461, 41.0, 22.0 ],
                                    "text": "swiz y"
                                }
                            },
                            {
                                "box": {
                                    "id": "obj-6",
                                    "maxclass": "newobj",
                                    "numinlets": 1,
                                    "numoutlets": 1,
                                    "outlettype": [ "" ],
                                    "patching_rect": [ 18.59375, 149.5191879272461, 41.0, 22.0 ],
                                    "text": "swiz x"
                                }
                            },
                            {
                                "box": {
                                    "id": "obj-1",
                                    "maxclass": "newobj",
                                    "numinlets": 0,
                                    "numoutlets": 1,
                                    "outlettype": [ "" ],
                                    "patching_rect": [ 263.6184196472168, 47.956687927246094, 28.0, 22.0 ],
                                    "text": "in 1"
                                }
                            },
                            {
                                "box": {
                                    "id": "obj-4",
                                    "maxclass": "newobj",
                                    "numinlets": 1,
                                    "numoutlets": 0,
                                    "patching_rect": [ 18.59375, 315.9254379272461, 35.0, 22.0 ],
                                    "text": "out 1"
                                }
                            }
                        ],
                        "lines": [
                            {
                                "patchline": {
                                    "destination": [ "obj-11", 0 ],
                                    "midpoints": [ 273.1184196472168, 83.8941879272461, 360.6209196472168, 83.8941879272461 ],
                                    "order": 0,
                                    "source": [ "obj-1", 0 ]
                                }
                            },
                            {
                                "patchline": {
                                    "destination": [ "obj-9", 0 ],
                                    "order": 1,
                                    "source": [ "obj-1", 0 ]
                                }
                            },
                            {
                                "patchline": {
                                    "destination": [ "obj-10", 0 ],
                                    "source": [ "obj-11", 0 ]
                                }
                            },
                            {
                                "patchline": {
                                    "destination": [ "obj-13", 0 ],
                                    "order": 0,
                                    "source": [ "obj-12", 0 ]
                                }
                            },
                            {
                                "patchline": {
                                    "destination": [ "obj-6", 0 ],
                                    "order": 2,
                                    "source": [ "obj-12", 0 ]
                                }
                            },
                            {
                                "patchline": {
                                    "destination": [ "obj-7", 0 ],
                                    "order": 1,
                                    "source": [ "obj-12", 0 ]
                                }
                            },
                            {
                                "patchline": {
                                    "destination": [ "obj-14", 0 ],
                                    "source": [ "obj-13", 0 ]
                                }
                            },
                            {
                                "patchline": {
                                    "destination": [ "obj-8", 2 ],
                                    "source": [ "obj-14", 0 ]
                                }
                            },
                            {
                                "patchline": {
                                    "destination": [ "obj-14", 1 ],
                                    "source": [ "obj-2", 0 ]
                                }
                            },
                            {
                                "patchline": {
                                    "destination": [ "obj-8", 0 ],
                                    "source": [ "obj-6", 0 ]
                                }
                            },
                            {
                                "patchline": {
                                    "destination": [ "obj-8", 1 ],
                                    "source": [ "obj-7", 0 ]
                                }
                            },
                            {
                                "patchline": {
                                    "destination": [ "obj-4", 0 ],
                                    "source": [ "obj-8", 0 ]
                                }
                            },
                            {
                                "patchline": {
                                    "destination": [ "obj-2", 0 ],
                                    "source": [ "obj-9", 0 ]
                                }
                            }
                        ]
                    },
                    "patching_rect": [ 312.0, 626.6272349953651, 104.19444745779037, 22.0 ],
                    "text": "jit.gen",
                    "varname": "jit.gen_AA"
                }
            },
            {
                "box": {
                    "id": "obj-50",
                    "maxclass": "newobj",
                    "numinlets": 1,
                    "numoutlets": 2,
                    "outlettype": [ "jit_matrix", "" ],
                    "patching_rect": [ 455.0, 371.0, 128.0, 22.0 ],
                    "text": "jit.dimmap @invert 0 1"
                }
            },
            {
                "box": {
                    "id": "obj-41",
                    "maxclass": "newobj",
                    "numinlets": 1,
                    "numoutlets": 2,
                    "outlettype": [ "jit_matrix", "" ],
                    "patching_rect": [ 455.0, 409.0, 454.0, 22.0 ],
                    "text": "jit.matrix land 3 float32 500 256 @usedstdim 1 @dstdimstart 0 0 @dstdimend 0 255"
                }
            },
            {
                "box": {
                    "id": "obj-4",
                    "maxclass": "newobj",
                    "numinlets": 1,
                    "numoutlets": 2,
                    "outlettype": [ "bang", "bang" ],
                    "patching_rect": [ 455.0, 207.0, 32.0, 22.0 ],
                    "text": "t b b"
                }
            },
            {
                "box": {
                    "id": "obj-45",
                    "maxclass": "toggle",
                    "numinlets": 1,
                    "numoutlets": 1,
                    "outlettype": [ "int" ],
                    "parameter_enable": 0,
                    "patching_rect": [ 96.0, 68.0, 42.0, 42.0 ],
                    "presentation": 1,
                    "presentation_rect": [ 96.0, 68.0, 42.0, 42.0 ]
                }
            },
            {
                "box": {
                    "id": "obj-43",
                    "maxclass": "newobj",
                    "numinlets": 1,
                    "numoutlets": 3,
                    "outlettype": [ "jit_matrix", "bang", "" ],
                    "patching_rect": [ 97.3751991391182, 129.49151994228362, 739.0, 22.0 ],
                    "text": "jit.world SnowmanWorld @fsaa 1 @size 320 240 @windowposition 1500 100 @floating 1 @erase_color 0 0 0 1 @fsmenubar 0 @fps 120"
                }
            },
            {
                "box": {
                    "id": "obj-24",
                    "maxclass": "newobj",
                    "numinlets": 1,
                    "numoutlets": 1,
                    "outlettype": [ "" ],
                    "patching_rect": [ 455.0, 335.0, 180.0, 22.0 ],
                    "text": "pfft~ FrequencyAnalysis.pfft 512"
                }
            },
            {
                "box": {
                    "attr": "draw_mode",
                    "id": "obj-69",
                    "maxclass": "attrui",
                    "numinlets": 1,
                    "numoutlets": 1,
                    "outlettype": [ "" ],
                    "parameter_enable": 0,
                    "patching_rect": [ 884.0, 767.0, 150.0, 22.0 ]
                }
            },
            {
                "box": {
                    "angle": 270.0,
                    "bordercolor": [ 0.403921568627451, 0.5450980392156862, 0.7764705882352941, 1.0 ],
                    "grad1": [ 0.38823529411764707, 0.5725490196078431, 0.5647058823529412, 1.0 ],
                    "grad2": [ 0.172137149796092, 0.172137100044002, 0.172137113045018, 1.0 ],
                    "id": "obj-105",
                    "maxclass": "panel",
                    "mode": 1,
                    "numinlets": 1,
                    "numoutlets": 0,
                    "patching_rect": [ 36.0, 744.0, 128.0, 128.0 ],
                    "presentation": 1,
                    "presentation_rect": [ 57.0, 25.0, 1062.0, 327.0 ],
                    "proportion": 0.5
                }
            }
        ],
        "lines": [
            {
                "patchline": {
                    "destination": [ "obj-72", 0 ],
                    "source": [ "obj-1", 0 ]
                }
            },
            {
                "patchline": {
                    "destination": [ "obj-7", 2 ],
                    "source": [ "obj-11", 0 ]
                }
            },
            {
                "patchline": {
                    "destination": [ "obj-76", 0 ],
                    "source": [ "obj-14", 0 ]
                }
            },
            {
                "patchline": {
                    "destination": [ "obj-43", 0 ],
                    "source": [ "obj-17", 0 ]
                }
            },
            {
                "patchline": {
                    "destination": [ "obj-13", 1 ],
                    "order": 0,
                    "source": [ "obj-2", 0 ]
                }
            },
            {
                "patchline": {
                    "destination": [ "obj-13", 0 ],
                    "order": 1,
                    "source": [ "obj-2", 0 ]
                }
            },
            {
                "patchline": {
                    "destination": [ "obj-36", 0 ],
                    "source": [ "obj-21", 0 ]
                }
            },
            {
                "patchline": {
                    "destination": [ "obj-36", 0 ],
                    "source": [ "obj-22", 0 ]
                }
            },
            {
                "patchline": {
                    "destination": [ "obj-50", 0 ],
                    "source": [ "obj-24", 0 ]
                }
            },
            {
                "patchline": {
                    "destination": [ "obj-61", 2 ],
                    "source": [ "obj-27", 0 ]
                }
            },
            {
                "patchline": {
                    "destination": [ "obj-31", 0 ],
                    "order": 1,
                    "source": [ "obj-28", 0 ]
                }
            },
            {
                "patchline": {
                    "destination": [ "obj-32", 0 ],
                    "order": 0,
                    "source": [ "obj-28", 0 ]
                }
            },
            {
                "patchline": {
                    "destination": [ "obj-9", 0 ],
                    "source": [ "obj-31", 0 ]
                }
            },
            {
                "patchline": {
                    "destination": [ "obj-11", 0 ],
                    "source": [ "obj-32", 0 ]
                }
            },
            {
                "patchline": {
                    "destination": [ "obj-35", 0 ],
                    "source": [ "obj-34", 0 ]
                }
            },
            {
                "patchline": {
                    "destination": [ "obj-70", 0 ],
                    "source": [ "obj-35", 0 ]
                }
            },
            {
                "patchline": {
                    "destination": [ "obj-33", 0 ],
                    "order": 0,
                    "source": [ "obj-36", 0 ]
                }
            },
            {
                "patchline": {
                    "destination": [ "obj-35", 1 ],
                    "order": 1,
                    "source": [ "obj-36", 0 ]
                }
            },
            {
                "patchline": {
                    "destination": [ "obj-11", 0 ],
                    "midpoints": [ 477.5, 231.0, 494.0, 231.0, 494.0, 310.0, 801.0482227802277, 310.0 ],
                    "order": 1,
                    "source": [ "obj-4", 1 ]
                }
            },
            {
                "patchline": {
                    "destination": [ "obj-24", 0 ],
                    "source": [ "obj-4", 0 ]
                }
            },
            {
                "patchline": {
                    "destination": [ "obj-34", 0 ],
                    "midpoints": [ 477.5, 231.0, 1011.5, 231.0 ],
                    "order": 0,
                    "source": [ "obj-4", 1 ]
                }
            },
            {
                "patchline": {
                    "destination": [ "obj-9", 0 ],
                    "midpoints": [ 477.5, 321.0, 741.0482227802277, 321.0 ],
                    "order": 2,
                    "source": [ "obj-4", 1 ]
                }
            },
            {
                "patchline": {
                    "destination": [ "obj-52", 0 ],
                    "source": [ "obj-41", 0 ]
                }
            },
            {
                "patchline": {
                    "destination": [ "obj-54", 0 ],
                    "order": 2,
                    "source": [ "obj-41", 1 ]
                }
            },
            {
                "patchline": {
                    "destination": [ "obj-57", 1 ],
                    "order": 1,
                    "source": [ "obj-41", 1 ]
                }
            },
            {
                "patchline": {
                    "destination": [ "obj-59", 0 ],
                    "order": 0,
                    "source": [ "obj-41", 1 ]
                }
            },
            {
                "patchline": {
                    "destination": [ "obj-4", 0 ],
                    "source": [ "obj-43", 1 ]
                }
            },
            {
                "patchline": {
                    "destination": [ "obj-47", 0 ],
                    "source": [ "obj-44", 0 ]
                }
            },
            {
                "patchline": {
                    "destination": [ "obj-43", 0 ],
                    "source": [ "obj-45", 0 ]
                }
            },
            {
                "patchline": {
                    "destination": [ "obj-41", 0 ],
                    "source": [ "obj-50", 0 ]
                }
            },
            {
                "patchline": {
                    "destination": [ "obj-20", 0 ],
                    "source": [ "obj-51", 0 ]
                }
            },
            {
                "patchline": {
                    "destination": [ "obj-20", 0 ],
                    "source": [ "obj-52", 0 ]
                }
            },
            {
                "patchline": {
                    "destination": [ "obj-55", 0 ],
                    "source": [ "obj-54", 0 ]
                }
            },
            {
                "patchline": {
                    "destination": [ "obj-27", 0 ],
                    "order": 1,
                    "source": [ "obj-55", 0 ]
                }
            },
            {
                "patchline": {
                    "destination": [ "obj-44", 0 ],
                    "order": 0,
                    "source": [ "obj-55", 0 ]
                }
            },
            {
                "patchline": {
                    "destination": [ "obj-67", 0 ],
                    "source": [ "obj-56", 0 ]
                }
            },
            {
                "patchline": {
                    "destination": [ "obj-78", 0 ],
                    "source": [ "obj-59", 1 ]
                }
            },
            {
                "patchline": {
                    "destination": [ "obj-5", 0 ],
                    "source": [ "obj-61", 0 ]
                }
            },
            {
                "patchline": {
                    "destination": [ "obj-20", 0 ],
                    "source": [ "obj-69", 0 ]
                }
            },
            {
                "patchline": {
                    "destination": [ "obj-41", 0 ],
                    "source": [ "obj-7", 0 ]
                }
            },
            {
                "patchline": {
                    "destination": [ "obj-40", 0 ],
                    "source": [ "obj-70", 0 ]
                }
            },
            {
                "patchline": {
                    "destination": [ "obj-36", 0 ],
                    "source": [ "obj-71", 0 ]
                }
            },
            {
                "patchline": {
                    "destination": [ "obj-36", 0 ],
                    "source": [ "obj-72", 0 ]
                }
            },
            {
                "patchline": {
                    "destination": [ "obj-76", 0 ],
                    "source": [ "obj-73", 0 ]
                }
            },
            {
                "patchline": {
                    "destination": [ "obj-76", 0 ],
                    "source": [ "obj-74", 0 ]
                }
            },
            {
                "patchline": {
                    "destination": [ "obj-2", 0 ],
                    "order": 1,
                    "source": [ "obj-76", 0 ]
                }
            },
            {
                "patchline": {
                    "destination": [ "obj-88", 0 ],
                    "order": 0,
                    "source": [ "obj-76", 0 ]
                }
            },
            {
                "patchline": {
                    "destination": [ "obj-79", 0 ],
                    "source": [ "obj-78", 0 ]
                }
            },
            {
                "patchline": {
                    "destination": [ "obj-87", 0 ],
                    "source": [ "obj-78", 1 ]
                }
            },
            {
                "patchline": {
                    "destination": [ "obj-89", 0 ],
                    "source": [ "obj-78", 2 ]
                }
            },
            {
                "patchline": {
                    "destination": [ "obj-14", 0 ],
                    "source": [ "obj-85", 0 ]
                }
            },
            {
                "patchline": {
                    "destination": [ "obj-7", 1 ],
                    "source": [ "obj-9", 0 ]
                }
            },
            {
                "patchline": {
                    "destination": [ "obj-24", 0 ],
                    "source": [ "obj-90", 0 ]
                }
            },
            {
                "patchline": {
                    "destination": [ "obj-73", 0 ],
                    "order": 1,
                    "source": [ "obj-91", 0 ]
                }
            },
            {
                "patchline": {
                    "destination": [ "obj-74", 0 ],
                    "order": 2,
                    "source": [ "obj-91", 0 ]
                }
            },
            {
                "patchline": {
                    "destination": [ "obj-94", 0 ],
                    "order": 0,
                    "source": [ "obj-91", 0 ]
                }
            },
            {
                "patchline": {
                    "destination": [ "obj-67", 0 ],
                    "source": [ "obj-94", 0 ]
                }
            }
        ],
        "parameters": {
            "obj-2": [ "live.gain~", "live.gain~", 0 ],
            "inherited_shortname": 1
        },
        "autosave": 0
    }
}